<svg width="424" height="111" viewBox="0 0 424 111" fill="none" xmlns="http://www.w3.org/2000/svg">
<path d="M0.84375 9.9375H31.4531V19.5H12.9844V43.4531H27.4688V53.0156H12.9844V90H0.84375V9.9375ZM42.9188 90.7031C40.9188 90.7031 39.1375 90.3125 37.575 89.5312C36.0438 88.7188 34.7469 87.625 33.6844 86.25C32.6219 84.875 31.8094 83.25 31.2469 81.375C30.7156 79.4688 30.45 77.4062 30.45 75.1875C30.45 72.5312 30.7781 70.1719 31.4344 68.1094C32.0906 66.0469 33.0438 64.1875 34.2938 62.5312C35.575 60.875 37.1531 59.375 39.0281 58.0312C40.9031 56.6562 43.075 55.3594 45.5438 54.1406C46.7313 53.5469 48.0594 52.9531 49.5281 52.3594C51.0281 51.7344 52.3563 51.2031 53.5125 50.7656V42.2344C53.5125 40.9844 53.4656 39.8281 53.3719 38.7656C53.2781 37.6719 53.0438 36.7344 52.6688 35.9531C52.325 35.1406 51.7938 34.5156 51.075 34.0781C50.3563 33.6094 49.3719 33.375 48.1219 33.375C47.2781 33.375 46.45 33.5312 45.6375 33.8438C44.8563 34.1562 44.1531 34.6875 43.5281 35.4375C42.9344 36.1875 42.45 37.1875 42.075 38.4375C41.7313 39.6875 41.5594 41.2344 41.5594 43.0781V45.8906H32.5125C32.2313 44.6719 32.0125 43.5625 31.8563 42.5625C31.7313 41.5312 31.6688 40.5156 31.6688 39.5156C31.6688 37.1094 32.075 34.9844 32.8875 33.1406C33.7313 31.2969 34.8875 29.75 36.3563 28.5C37.8563 27.25 39.6375 26.3125 41.7 25.6875C43.7625 25.0312 46.0281 24.7031 48.4969 24.7031C51.7156 24.7031 54.3875 25.0625 56.5125 25.7812C58.6375 26.4688 60.325 27.5156 61.575 28.9219C62.8563 30.3281 63.7469 32.0938 64.2469 34.2188C64.7781 36.3438 65.0438 38.8281 65.0438 41.6719V90H56.2313L55.3875 84.4688C54.1063 86.3125 52.3875 87.8125 50.2313 88.9688C48.1063 90.125 45.6688 90.7031 42.9188 90.7031ZM48.1688 81.5625C49.1688 81.5625 50.1375 81.3125 51.075 80.8125C52.0438 80.2812 52.8563 79.6406 53.5125 78.8906V58.6875C52.8875 58.9375 52.1844 59.2344 51.4031 59.5781C50.6219 59.9219 49.7781 60.375 48.8719 60.9375C48.0281 61.4688 47.2 62.1094 46.3875 62.8594C45.575 63.6094 44.8406 64.5 44.1844 65.5312C43.5594 66.5625 43.0438 67.7344 42.6375 69.0469C42.2625 70.3281 42.075 71.7656 42.075 73.3594C42.075 75.8281 42.5594 77.8125 43.5281 79.3125C44.4969 80.8125 46.0438 81.5625 48.1688 81.5625ZM72.7125 4.73438H84.5719V90H72.7125V4.73438ZM107.756 90.7031C104.975 90.7031 102.506 90.1875 100.35 89.1562C98.225 88.125 96.4281 86.5156 94.9594 84.3281C93.4906 82.1406 92.3812 79.3438 91.6312 75.9375C90.8812 72.5 90.5062 68.375 90.5062 63.5625V51.375C90.5062 47.2812 90.8031 43.7812 91.3969 40.875C92.0219 37.9375 92.8187 35.4844 93.7875 33.5156C94.7875 31.5156 95.9281 29.9375 97.2094 28.7812C98.5219 27.625 99.8656 26.75 101.241 26.1562C102.616 25.5312 103.975 25.1406 105.319 24.9844C106.694 24.7969 107.959 24.7031 109.116 24.7031C111.241 24.7031 113.287 25.0312 115.256 25.6875C117.225 26.3125 118.959 27.4062 120.459 28.9688C121.959 30.5 123.147 32.5625 124.022 35.1562C124.928 37.75 125.381 40.9844 125.381 44.8594C125.381 46.1719 125.334 47.5 125.241 48.8438C125.178 50.1875 125.084 51.5156 124.959 52.8281C124.834 54.1094 124.662 55.3594 124.444 56.5781C124.256 57.7969 124.053 58.9219 123.834 59.9531H102.412V66.5156C102.412 69.3281 102.522 71.7031 102.741 73.6406C102.959 75.5469 103.319 77.0938 103.819 78.2812C104.35 79.4375 105.053 80.2812 105.928 80.8125C106.834 81.3125 107.959 81.5625 109.303 81.5625C110.022 81.5625 110.725 81.4219 111.412 81.1406C112.1 80.8281 112.694 80.3281 113.194 79.6406C113.725 78.9531 114.147 78.0469 114.459 76.9219C114.772 75.7656 114.928 74.3438 114.928 72.6562V70.6406H124.819V73.125C124.819 79.25 123.35 83.7188 120.412 86.5312C117.506 89.3125 113.287 90.7031 107.756 90.7031ZM114.319 51.9844C114.35 51.6406 114.381 51.1875 114.412 50.625C114.444 50.0312 114.459 49.4219 114.459 48.7969C114.491 48.1719 114.506 47.5625 114.506 46.9688C114.506 46.3438 114.506 45.8125 114.506 45.375C114.506 41.125 114.006 38.0625 113.006 36.1875C112.006 34.3125 110.522 33.375 108.553 33.375C107.522 33.375 106.616 33.625 105.834 34.125C105.053 34.5938 104.412 35.4062 103.912 36.5625C103.412 37.6875 103.037 39.1875 102.787 41.0625C102.537 42.9375 102.412 45.2656 102.412 48.0469V51.9844H114.319ZM161.391 90.7031C155.953 90.7031 151.797 88.4688 148.922 84C146.078 79.5312 144.656 72.7188 144.656 63.5625V51.375C144.656 47.2812 144.953 43.7812 145.547 40.875C146.141 37.9375 146.922 35.4844 147.891 33.5156C148.891 31.5156 150.016 29.9375 151.266 28.7812C152.547 27.625 153.859 26.75 155.203 26.1562C156.547 25.5312 157.875 25.1406 159.188 24.9844C160.5 24.7969 161.703 24.7031 162.797 24.7031C164.984 24.7031 166.984 25 168.797 25.5938C170.609 26.1562 172.172 27.0312 173.484 28.2188C174.797 29.375 175.812 30.8438 176.531 32.625C177.25 34.4062 177.609 36.5 177.609 38.9062C177.609 40.4062 177.531 41.7031 177.375 42.7969C177.25 43.8594 177.062 44.8906 176.812 45.8906H167.344V43.7344C167.344 40.4844 166.953 37.9531 166.172 36.1406C165.422 34.2969 164.172 33.375 162.422 33.375C161.453 33.375 160.609 33.6094 159.891 34.0781C159.172 34.5156 158.562 35.2812 158.062 36.375C157.594 37.4688 157.234 38.9375 156.984 40.7812C156.766 42.625 156.656 44.9375 156.656 47.7188V66.0469C156.656 68.8594 156.75 71.25 156.938 73.2188C157.125 75.1875 157.453 76.7969 157.922 78.0469C158.391 79.2656 159.016 80.1562 159.797 80.7188C160.578 81.2812 161.547 81.5625 162.703 81.5625C163.297 81.5625 163.875 81.4219 164.438 81.1406C165 80.8281 165.484 80.3281 165.891 79.6406C166.328 78.9531 166.672 78.0469 166.922 76.9219C167.203 75.7656 167.344 74.3438 167.344 72.6562V70.6406H177.562V73.125C177.562 79.25 176.203 83.7188 173.484 86.5312C170.797 89.3125 166.766 90.7031 161.391 90.7031ZM198.684 90.7031C197.309 90.7031 195.903 90.5938 194.466 90.375C193.059 90.1562 191.684 89.7031 190.341 89.0156C189.028 88.3281 187.778 87.3438 186.591 86.0625C185.434 84.7812 184.419 83.0938 183.544 81C182.669 78.9062 181.981 76.3281 181.481 73.2656C180.981 70.2031 180.731 66.5469 180.731 62.2969V52.1719C180.731 47.9844 180.981 44.4062 181.481 41.4375C182.012 38.4375 182.716 35.9219 183.591 33.8906C184.497 31.8594 185.544 30.25 186.731 29.0625C187.919 27.8438 189.169 26.9219 190.481 26.2969C191.825 25.6406 193.2 25.2188 194.606 25.0312C196.012 24.8125 197.387 24.7031 198.731 24.7031C200.012 24.7031 201.341 24.7969 202.716 24.9844C204.091 25.1719 205.434 25.5781 206.747 26.2031C208.059 26.7969 209.294 27.7031 210.45 28.9219C211.637 30.1094 212.669 31.7188 213.544 33.75C214.45 35.7812 215.153 38.3125 215.653 41.3438C216.184 44.3438 216.45 47.9531 216.45 52.1719V62.2969C216.45 66.4844 216.184 70.0938 215.653 73.125C215.122 76.1562 214.403 78.7188 213.497 80.8125C212.591 82.9062 211.544 84.6094 210.356 85.9219C209.169 87.2031 207.919 88.2031 206.606 88.9219C205.294 89.6406 203.95 90.1094 202.575 90.3281C201.231 90.5781 199.934 90.7031 198.684 90.7031ZM198.778 81.5625C199.841 81.5625 200.731 81.2969 201.45 80.7656C202.2 80.2031 202.794 79.2969 203.231 78.0469C203.7 76.7969 204.028 75.1562 204.216 73.125C204.434 71.0625 204.544 68.5156 204.544 65.4844V49.5938C204.544 46.5625 204.434 44.0156 204.216 41.9531C204.028 39.8906 203.7 38.2344 203.231 36.9844C202.794 35.7031 202.2 34.7812 201.45 34.2188C200.731 33.6562 199.841 33.375 198.778 33.375C197.653 33.375 196.7 33.6562 195.919 34.2188C195.169 34.7812 194.544 35.7031 194.044 36.9844C193.544 38.2344 193.184 39.8906 192.966 41.9531C192.747 44.0156 192.637 46.5625 192.637 49.5938V65.4844C192.637 68.5156 192.747 71.0625 192.966 73.125C193.184 75.1562 193.544 76.7969 194.044 78.0469C194.544 79.2969 195.169 80.2031 195.919 80.7656C196.7 81.2969 197.653 81.5625 198.778 81.5625ZM222.15 25.4531H231.337L232.369 32.3438V32.3906C233.306 30.9219 234.306 29.7031 235.369 28.7344C236.431 27.7344 237.525 26.9375 238.65 26.3438C239.806 25.75 240.978 25.3281 242.166 25.0781C243.384 24.8281 244.587 24.7031 245.775 24.7031C248.306 24.7031 250.447 25.3125 252.197 26.5312C253.947 27.75 255.275 29.5781 256.181 32.0156C257.119 30.6094 258.103 29.4375 259.134 28.5C260.197 27.5625 261.291 26.8125 262.416 26.25C263.541 25.6875 264.681 25.2969 265.837 25.0781C266.994 24.8281 268.166 24.7031 269.353 24.7031C273.103 24.7031 275.994 26.0312 278.025 28.6875C280.087 31.3125 281.119 35.2656 281.119 40.5469V90H269.259V40.9688C269.259 39.5625 269.15 38.375 268.931 37.4062C268.712 36.4375 268.384 35.6562 267.947 35.0625C267.509 34.4688 266.947 34.0469 266.259 33.7969C265.572 33.5156 264.744 33.375 263.775 33.375C262.681 33.375 261.587 33.7812 260.494 34.5938C259.4 35.375 258.4 36.4688 257.494 37.875C257.525 38.1562 257.541 38.4375 257.541 38.7188C257.541 39 257.541 39.2812 257.541 39.5625V90H245.681V40.9688C245.681 39.5625 245.572 38.375 245.353 37.4062C245.134 36.4375 244.806 35.6562 244.369 35.0625C243.931 34.4688 243.369 34.0469 242.681 33.7969C241.994 33.5156 241.166 33.375 240.197 33.375C239.134 33.375 238.056 33.7656 236.962 34.5469C235.869 35.3281 234.884 36.4062 234.009 37.7812V90H222.15V25.4531ZM294.928 16.2188C292.741 16.2188 291.006 15.5625 289.725 14.25C288.475 12.9375 287.85 11.0156 287.85 8.48438C287.85 7.07812 288.006 5.90625 288.319 4.96875C288.663 4 289.131 3.23438 289.725 2.67188C290.35 2.07812 291.1 1.65625 291.975 1.40625C292.85 1.125 293.85 0.984375 294.975 0.984375C297.319 0.984375 299.1 1.57813 300.319 2.76562C301.538 3.95312 302.147 5.85938 302.147 8.48438C302.147 10.9219 301.522 12.8281 300.272 14.2031C299.053 15.5469 297.272 16.2188 294.928 16.2188ZM288.788 25.4531H300.647V90H288.788V25.4531ZM317.925 94.4062C317.925 97.1875 318.441 99.1562 319.472 100.312C320.503 101.469 322.097 102.047 324.253 102.047C325.128 102.047 325.972 101.906 326.784 101.625C327.597 101.375 328.3 100.891 328.894 100.172C329.519 99.4844 330.019 98.5156 330.394 97.2656C330.769 96.0156 330.956 94.4062 330.956 92.4375V82.2656C329.894 83.6406 328.519 84.8281 326.831 85.8281C325.175 86.7969 323.112 87.2812 320.644 87.2812C319.925 87.2812 319.081 87.2188 318.112 87.0938C317.144 86.9375 316.144 86.6094 315.112 86.1094C314.081 85.6094 313.066 84.8594 312.066 83.8594C311.066 82.8281 310.175 81.4531 309.394 79.7344C308.612 78.0156 307.972 75.875 307.472 73.3125C307.003 70.7188 306.769 67.5938 306.769 63.9375V46.9688C306.769 43.4688 307.003 40.5 307.472 38.0625C307.972 35.5938 308.612 33.5312 309.394 31.875C310.175 30.2188 311.066 28.9219 312.066 27.9844C313.097 27.0469 314.128 26.3438 315.159 25.875C316.222 25.375 317.253 25.0625 318.253 24.9375C319.253 24.8125 320.144 24.75 320.925 24.75C322.487 24.75 323.862 24.9531 325.05 25.3594C326.269 25.7656 327.316 26.3125 328.191 27C329.097 27.6562 329.862 28.4062 330.487 29.25C331.112 30.0938 331.644 30.9375 332.081 31.7812L333.159 25.4062H342.394V87.375C342.394 90.9688 342.05 94.2031 341.362 97.0781C340.675 99.9844 339.597 102.453 338.128 104.484C336.659 106.547 334.784 108.125 332.503 109.219C330.253 110.312 327.55 110.859 324.394 110.859C322.269 110.859 320.269 110.672 318.394 110.297C316.519 109.922 314.878 109.25 313.472 108.281C312.066 107.344 310.956 106.047 310.144 104.391C309.331 102.766 308.925 100.688 308.925 98.1562C308.925 97.7188 308.972 97.1719 309.066 96.5156C309.159 95.8594 309.316 95.1562 309.534 94.4062H317.925ZM324.675 78.0938C325.456 78.0938 326.144 77.9688 326.737 77.7188C327.362 77.4375 327.909 77.0781 328.378 76.6406C328.878 76.2031 329.3 75.7031 329.644 75.1406C330.019 74.5781 330.331 74 330.581 73.4062V38.1094C329.987 36.7969 329.191 35.6875 328.191 34.7812C327.222 33.8438 326.034 33.375 324.628 33.375C323.753 33.375 322.956 33.5312 322.237 33.8438C321.519 34.1562 320.894 34.75 320.362 35.625C319.831 36.4688 319.409 37.6562 319.097 39.1875C318.816 40.6875 318.675 42.6406 318.675 45.0469V66.2812C318.675 68.6875 318.816 70.6562 319.097 72.1875C319.409 73.7188 319.831 74.9219 320.362 75.7969C320.894 76.6719 321.519 77.2812 322.237 77.625C322.987 77.9375 323.8 78.0938 324.675 78.0938ZM366.328 90.7031C364.953 90.7031 363.547 90.5938 362.109 90.375C360.703 90.1562 359.328 89.7031 357.984 89.0156C356.672 88.3281 355.422 87.3438 354.234 86.0625C353.078 84.7812 352.062 83.0938 351.188 81C350.312 78.9062 349.625 76.3281 349.125 73.2656C348.625 70.2031 348.375 66.5469 348.375 62.2969V52.1719C348.375 47.9844 348.625 44.4062 349.125 41.4375C349.656 38.4375 350.359 35.9219 351.234 33.8906C352.141 31.8594 353.188 30.25 354.375 29.0625C355.562 27.8438 356.812 26.9219 358.125 26.2969C359.469 25.6406 360.844 25.2188 362.25 25.0312C363.656 24.8125 365.031 24.7031 366.375 24.7031C367.656 24.7031 368.984 24.7969 370.359 24.9844C371.734 25.1719 373.078 25.5781 374.391 26.2031C375.703 26.7969 376.938 27.7031 378.094 28.9219C379.281 30.1094 380.312 31.7188 381.188 33.75C382.094 35.7812 382.797 38.3125 383.297 41.3438C383.828 44.3438 384.094 47.9531 384.094 52.1719V62.2969C384.094 66.4844 383.828 70.0938 383.297 73.125C382.766 76.1562 382.047 78.7188 381.141 80.8125C380.234 82.9062 379.188 84.6094 378 85.9219C376.812 87.2031 375.562 88.2031 374.25 88.9219C372.938 89.6406 371.594 90.1094 370.219 90.3281C368.875 90.5781 367.578 90.7031 366.328 90.7031ZM366.422 81.5625C367.484 81.5625 368.375 81.2969 369.094 80.7656C369.844 80.2031 370.438 79.2969 370.875 78.0469C371.344 76.7969 371.672 75.1562 371.859 73.125C372.078 71.0625 372.188 68.5156 372.188 65.4844V49.5938C372.188 46.5625 372.078 44.0156 371.859 41.9531C371.672 39.8906 371.344 38.2344 370.875 36.9844C370.438 35.7031 369.844 34.7812 369.094 34.2188C368.375 33.6562 367.484 33.375 366.422 33.375C365.297 33.375 364.344 33.6562 363.562 34.2188C362.812 34.7812 362.188 35.7031 361.688 36.9844C361.188 38.2344 360.828 39.8906 360.609 41.9531C360.391 44.0156 360.281 46.5625 360.281 49.5938V65.4844C360.281 68.5156 360.391 71.0625 360.609 73.125C360.828 75.1562 361.188 76.7969 361.688 78.0469C362.188 79.2969 362.812 80.2031 363.562 80.7656C364.344 81.2969 365.297 81.5625 366.422 81.5625ZM409.181 5.01562H421.978L420.525 63.9844H410.822L409.181 5.01562ZM408.384 81.7031C408.384 78.4219 409.041 76.0781 410.353 74.6719C411.666 73.2344 413.447 72.5156 415.697 72.5156C418.041 72.5156 419.853 73.2656 421.134 74.7656C422.416 76.2656 423.056 78.5781 423.056 81.7031C423.056 84.5469 422.4 86.75 421.087 88.3125C419.806 89.875 417.994 90.6562 415.65 90.6562C413.431 90.6562 411.666 89.9062 410.353 88.4062C409.041 86.875 408.384 84.6406 408.384 81.7031Z" fill="#C70000"/>
</svg>
