<svg width="629" height="462" viewBox="0 0 629 462" fill="none" xmlns="http://www.w3.org/2000/svg">
<g clip-path="url(#clip0_2_15)" filter="url(#filter0_ddd_2_15)">
<rect x="4" width="621" height="297" fill="#D9D9D9"/>
<rect x="4" y="297" width="621" height="157" fill="#323030"/>
<path d="M18.788 13.4H29.872C33.7253 13.4 36.536 14.3067 38.304 16.12C40.072 17.888 40.956 20.6307 40.956 24.348V27.272C40.956 32.2133 39.324 35.3413 36.06 36.656V36.792C37.8733 37.336 39.1427 38.4467 39.868 40.124C40.6387 41.8013 41.024 44.0453 41.024 46.856V55.22C41.024 56.58 41.0693 57.6907 41.16 58.552C41.2507 59.368 41.4773 60.184 41.84 61H34.224C33.952 60.2293 33.7707 59.504 33.68 58.824C33.5893 58.144 33.544 56.92 33.544 55.152V46.448C33.544 44.272 33.1813 42.7533 32.456 41.892C31.776 41.0307 30.5747 40.6 28.852 40.6H26.268V61H18.788V13.4ZM28.988 33.8C30.484 33.8 31.5947 33.4147 32.32 32.644C33.0907 31.8733 33.476 30.5813 33.476 28.768V25.096C33.476 23.3733 33.1587 22.1267 32.524 21.356C31.9347 20.5853 30.9827 20.2 29.668 20.2H26.268V33.8H28.988Z" fill="#E8000C"/>
<path d="M567 73.0435V9.49565V0H625V84L567 73.0435Z" fill="#FF0000" stroke="#FF0000"/>
<path d="M580.064 9.8H576.384V6.6H587.264V9.8H583.584V29H580.064V9.8ZM597.131 29.32C595.403 29.32 594.081 28.8293 593.163 27.848C592.246 26.8667 591.787 25.48 591.787 23.688V11.912C591.787 10.12 592.246 8.73333 593.163 7.752C594.081 6.77067 595.403 6.28 597.131 6.28C598.859 6.28 600.182 6.77067 601.099 7.752C602.017 8.73333 602.475 10.12 602.475 11.912V23.688C602.475 25.48 602.017 26.8667 601.099 27.848C600.182 28.8293 598.859 29.32 597.131 29.32ZM597.131 26.12C598.347 26.12 598.955 25.384 598.955 23.912V11.688C598.955 10.216 598.347 9.48 597.131 9.48C595.915 9.48 595.307 10.216 595.307 11.688V23.912C595.307 25.384 595.915 26.12 597.131 26.12ZM608.056 6.6H613.24C614.989 6.6 616.301 7.06933 617.176 8.008C618.05 8.94667 618.488 10.3227 618.488 12.136V14.344C618.488 16.1573 618.05 17.5333 617.176 18.472C616.301 19.4107 614.989 19.88 613.24 19.88H611.576V29H608.056V6.6ZM613.24 16.68C613.816 16.68 614.242 16.52 614.52 16.2C614.818 15.88 614.968 15.336 614.968 14.568V11.912C614.968 11.144 614.818 10.6 614.52 10.28C614.242 9.96 613.816 9.8 613.24 9.8H611.576V16.68H613.24Z" fill="white"/>
<path d="M593.36 42.368H587.84V38.624C589.344 38.624 590.544 38.496 591.44 38.24C592.368 37.984 593.104 37.568 593.648 36.992C594.192 36.384 594.672 35.52 595.088 34.4H598.64V68H593.36V42.368Z" fill="white"/>
<path d="M42.5 358.583C54.6963 358.583 64.5834 348.696 64.5834 336.5C64.5834 324.304 54.6963 314.417 42.5 314.417C30.3037 314.417 20.4167 324.304 20.4167 336.5C20.4167 348.696 30.3037 358.583 42.5 358.583Z" stroke="#BBBBBB" stroke-width="2" stroke-linecap="round" stroke-linejoin="round"/>
<path d="M38.0833 327.667L51.3333 336.5L38.0833 345.333V327.667Z" stroke="#BBBBBB" stroke-width="2" stroke-linecap="round" stroke-linejoin="round"/>
<path d="M101.5 357.583C113.696 357.583 123.583 347.696 123.583 335.5C123.583 323.304 113.696 313.417 101.5 313.417C89.3037 313.417 79.4167 323.304 79.4167 335.5C79.4167 347.696 89.3037 357.583 101.5 357.583Z" stroke="#BBBBBB" stroke-width="2" stroke-linecap="round" stroke-linejoin="round"/>
<path d="M101.5 326.667V344.333" stroke="#BBBBBB" stroke-width="2" stroke-linecap="round" stroke-linejoin="round"/>
<path d="M92.6667 335.5H110.333" stroke="#BBBBBB" stroke-width="2" stroke-linecap="round" stroke-linejoin="round"/>
<path d="M155.843 334.25L160.517 323C161.447 323 162.338 323.395 162.996 324.098C163.653 324.802 164.023 325.755 164.023 326.75V331.75H170.636C170.975 331.746 171.311 331.821 171.62 331.969C171.929 332.117 172.204 332.336 172.426 332.609C172.649 332.883 172.813 333.205 172.907 333.553C173.002 333.901 173.024 334.267 172.974 334.625L171.361 345.875C171.276 346.471 170.993 347.014 170.564 347.405C170.134 347.795 169.587 348.007 169.024 348H155.843M155.843 334.25V348M155.843 334.25H152.337C151.717 334.25 151.123 334.513 150.685 334.982C150.246 335.451 150 336.087 150 336.75V345.5C150 346.163 150.246 346.799 150.685 347.268C151.123 347.736 151.717 348 152.337 348H155.843" stroke="#BBBBBB" stroke-width="2" stroke-linecap="round" stroke-linejoin="round"/>
<path d="M160.5 358.583C172.696 358.583 182.583 348.696 182.583 336.5C182.583 324.304 172.696 314.417 160.5 314.417C148.304 314.417 138.417 324.304 138.417 336.5C138.417 348.696 148.304 358.583 160.5 358.583Z" stroke="#BBBBBB" stroke-width="2" stroke-linecap="round" stroke-linejoin="round"/>
<rect x="549" y="314" width="42" height="42" rx="2" fill="#C70000"/>
<path d="M560.246 345V327.211C559.941 327.492 559.566 327.773 559.121 328.055C558.688 328.324 558.23 328.582 557.75 328.828C557.27 329.062 556.795 329.279 556.326 329.479C555.857 329.666 555.447 329.812 555.096 329.918V326.455C555.494 326.291 555.951 326.045 556.467 325.717C556.994 325.389 557.504 325.043 557.996 324.68C558.488 324.305 558.934 323.947 559.332 323.607C559.73 323.268 560 323.004 560.141 322.816H563.92V345H560.246ZM584.296 337.266C584.296 338.602 584.068 339.756 583.611 340.729C583.154 341.701 582.55 342.504 581.8 343.137C581.05 343.77 580.183 344.238 579.199 344.543C578.226 344.848 577.224 345 576.193 345C575.162 345 574.171 344.842 573.222 344.525C572.273 344.197 571.435 343.623 570.709 342.803C569.982 341.982 569.402 340.869 568.968 339.463C568.535 338.045 568.318 336.24 568.318 334.049C568.318 331.869 568.529 330.023 568.951 328.512C569.373 326.988 569.953 325.758 570.691 324.82C571.441 323.883 572.332 323.203 573.363 322.781C574.406 322.359 575.543 322.148 576.773 322.148C577.769 322.148 578.677 322.289 579.498 322.57C580.318 322.84 581.021 323.215 581.607 323.695C582.193 324.176 582.644 324.738 582.961 325.383C583.277 326.027 583.435 326.725 583.435 327.475H579.621C579.621 327.146 579.574 326.807 579.48 326.455C579.398 326.092 579.246 325.77 579.023 325.488C578.8 325.195 578.507 324.955 578.144 324.768C577.781 324.58 577.324 324.486 576.773 324.486C576.14 324.486 575.572 324.586 575.068 324.785C574.564 324.984 574.125 325.365 573.75 325.928C573.375 326.49 573.052 327.275 572.783 328.283C572.525 329.291 572.308 330.604 572.132 332.221C572.367 331.939 572.648 331.67 572.976 331.412C573.304 331.154 573.685 330.932 574.119 330.744C574.552 330.545 575.039 330.387 575.578 330.27C576.117 330.152 576.709 330.094 577.353 330.094C577.845 330.094 578.361 330.146 578.9 330.252C579.439 330.357 579.966 330.527 580.482 330.762C580.998 330.996 581.484 331.301 581.941 331.676C582.41 332.039 582.814 332.49 583.154 333.029C583.505 333.557 583.781 334.172 583.98 334.875C584.191 335.578 584.296 336.375 584.296 337.266ZM580.482 337.441C580.482 336.75 580.371 336.1 580.148 335.49C579.937 334.881 579.644 334.354 579.269 333.908C578.906 333.451 578.472 333.094 577.968 332.836C577.464 332.566 576.925 332.432 576.351 332.432C575.789 332.432 575.255 332.566 574.752 332.836C574.248 333.094 573.802 333.451 573.416 333.908C573.041 334.354 572.742 334.881 572.519 335.49C572.308 336.1 572.203 336.75 572.203 337.441C572.203 338.133 572.308 338.789 572.519 339.41C572.742 340.02 573.041 340.553 573.416 341.01C573.802 341.467 574.248 341.83 574.752 342.1C575.255 342.357 575.789 342.486 576.351 342.486C576.925 342.486 577.464 342.357 577.968 342.1C578.472 341.83 578.906 341.467 579.269 341.01C579.644 340.553 579.937 340.02 580.148 339.41C580.371 338.789 580.482 338.133 580.482 337.441Z" fill="white"/>
<path d="M26.752 383.952H30.832C32.464 383.952 33.688 384.28 34.504 384.936C35.336 385.592 35.752 386.744 35.752 388.392C35.752 389.56 35.52 390.456 35.056 391.08C34.592 391.704 33.912 392.136 33.016 392.376C32.136 392.6 30.968 392.712 29.512 392.712H28.24V399H26.752V383.952ZM29.224 391.488C30.568 391.488 31.568 391.44 32.224 391.344C32.88 391.232 33.376 390.96 33.712 390.528C34.064 390.08 34.24 389.376 34.24 388.416C34.24 387.168 33.976 386.312 33.448 385.848C32.936 385.368 32.096 385.128 30.928 385.128H28.24V391.488H29.224ZM37.2284 387.456H38.6684L38.7164 388.464C39.1644 388.16 39.7404 387.896 40.4444 387.672C41.1644 387.448 41.8284 387.32 42.4364 387.288V388.536C41.7484 388.536 41.0524 388.64 40.3484 388.848C39.6604 389.056 39.1244 389.296 38.7404 389.568V399H37.2284V387.456ZM47.965 399.12C46.445 399.12 45.317 398.608 44.581 397.584C43.845 396.544 43.477 395.08 43.477 393.192C43.477 391.224 43.837 389.752 44.557 388.776C45.277 387.784 46.413 387.288 47.965 387.288C49.517 387.288 50.653 387.784 51.373 388.776C52.109 389.752 52.477 391.224 52.477 393.192C52.477 395.08 52.109 396.544 51.373 397.584C50.637 398.608 49.501 399.12 47.965 399.12ZM47.965 397.872C49.069 397.872 49.845 397.472 50.293 396.672C50.741 395.872 50.965 394.712 50.965 393.192C50.965 391.704 50.733 390.552 50.269 389.736C49.821 388.92 49.053 388.512 47.965 388.512C46.877 388.512 46.101 388.92 45.637 389.736C45.189 390.552 44.965 391.704 44.965 393.192C44.965 394.712 45.189 395.872 45.637 396.672C46.085 397.472 46.861 397.872 47.965 397.872ZM57.7683 399.12C56.6483 399.12 55.7443 398.84 55.0563 398.28C54.3843 397.72 54.0483 396.912 54.0483 395.856C54.0483 394.832 54.4963 393.992 55.3923 393.336C56.2883 392.68 57.7523 392.352 59.7843 392.352H60.7923V391.992C60.7923 390.712 60.5683 389.816 60.1203 389.304C59.6883 388.776 59.0723 388.512 58.2723 388.512C57.8403 388.512 57.4083 388.56 56.9763 388.656C56.5443 388.736 55.8883 388.888 55.0083 389.112L54.7203 387.96C56.0643 387.512 57.2643 387.288 58.3203 387.288C59.5363 387.288 60.4963 387.648 61.2003 388.368C61.9203 389.072 62.2803 390.208 62.2803 391.776V399H61.2003L60.9603 398.232C60.6723 398.456 60.2163 398.664 59.5923 398.856C58.9683 399.032 58.3603 399.12 57.7683 399.12ZM57.9843 397.92C58.4803 397.92 58.9923 397.848 59.5203 397.704C60.0483 397.544 60.4723 397.36 60.7923 397.152V393.456H60.1443C58.8163 393.456 57.7043 393.608 56.8083 393.912C55.9123 394.216 55.4643 394.824 55.4643 395.736C55.4643 396.456 55.6803 397 56.1123 397.368C56.5443 397.736 57.1683 397.92 57.9843 397.92ZM68.4456 399.12C67.6296 399.104 66.9976 398.928 66.5496 398.592C66.1016 398.256 65.7896 397.76 65.6136 397.104C65.4536 396.448 65.3736 395.568 65.3736 394.464V388.512H63.5736V387.456H65.4216L65.7096 384.144H66.8856V387.456H70.4856V388.512H66.8856V394.488C66.8856 395.48 66.9576 396.216 67.1016 396.696C67.2616 397.176 67.4696 397.496 67.7256 397.656C67.9976 397.8 68.3736 397.872 68.8536 397.872C69.7176 397.872 70.3016 397.848 70.6056 397.8L70.6776 399C70.0536 399.08 69.3096 399.12 68.4456 399.12ZM75.0529 385.224C74.7489 385.224 74.4929 385.136 74.2849 384.96C74.0769 384.768 73.9729 384.512 73.9729 384.192C73.9729 383.872 74.0769 383.616 74.2849 383.424C74.4929 383.216 74.7489 383.112 75.0529 383.112C75.3569 383.112 75.6049 383.208 75.7969 383.4C76.0049 383.576 76.1089 383.832 76.1089 384.168C76.1089 384.504 76.0049 384.768 75.7969 384.96C75.6049 385.136 75.3569 385.224 75.0529 385.224ZM72.0529 399V397.944H74.2849V388.512H72.0529V387.456H75.7969V397.944H78.0529V399H72.0529ZM82.2777 399L78.4377 387.456H79.9497L83.0937 397.392L86.0697 387.456H87.6057L83.8857 399H82.2777ZM93.1572 399.12C91.6372 399.12 90.5092 398.608 89.7732 397.584C89.0372 396.544 88.6692 395.08 88.6692 393.192C88.6692 391.224 89.0292 389.752 89.7492 388.776C90.4692 387.784 91.6052 387.288 93.1572 387.288C94.7092 387.288 95.8452 387.784 96.5652 388.776C97.3012 389.752 97.6692 391.224 97.6692 393.192C97.6692 395.08 97.3012 396.544 96.5652 397.584C95.8292 398.608 94.6932 399.12 93.1572 399.12ZM93.1572 397.872C94.2612 397.872 95.0372 397.472 95.4852 396.672C95.9332 395.872 96.1572 394.712 96.1572 393.192C96.1572 391.704 95.9252 390.552 95.4612 389.736C95.0132 388.92 94.2452 388.512 93.1572 388.512C92.0692 388.512 91.2932 388.92 90.8292 389.736C90.3812 390.552 90.1572 391.704 90.1572 393.192C90.1572 394.712 90.3812 395.872 90.8292 396.672C91.2772 397.472 92.0532 397.872 93.1572 397.872ZM109.035 394.608C108.363 394.608 107.787 394.376 107.307 393.912C106.843 393.432 106.611 392.856 106.611 392.184C106.611 391.512 106.843 390.936 107.307 390.456C107.787 389.976 108.363 389.736 109.035 389.736C109.723 389.736 110.299 389.976 110.763 390.456C111.243 390.936 111.483 391.512 111.483 392.184C111.483 392.856 111.243 393.432 110.763 393.912C110.299 394.376 109.723 394.608 109.035 394.608ZM126.167 399.12C125.079 399.12 124.111 398.848 123.263 398.304C122.431 397.744 121.767 396.896 121.271 395.76C120.791 394.624 120.551 393.2 120.551 391.488C120.551 388.752 120.991 386.784 121.871 385.584C122.767 384.368 124.151 383.76 126.023 383.76C127.255 383.76 128.471 384.048 129.671 384.624V387.48H128.375V385.44C127.719 385.152 126.983 385.008 126.167 385.008C125.223 385.008 124.455 385.192 123.863 385.56C123.271 385.912 122.815 386.56 122.495 387.504C122.191 388.448 122.039 389.784 122.039 391.512C122.039 393.672 122.423 395.272 123.191 396.312C123.959 397.352 124.983 397.872 126.263 397.872C127.351 397.872 128.431 397.616 129.503 397.104L129.983 398.256C128.767 398.832 127.495 399.12 126.167 399.12ZM131.786 387.456H133.226L133.274 388.464C133.722 388.16 134.298 387.896 135.002 387.672C135.722 387.448 136.386 387.32 136.994 387.288V388.536C136.306 388.536 135.61 388.64 134.906 388.848C134.218 389.056 133.682 389.296 133.298 389.568V399H131.786V387.456ZM141.154 385.224C140.85 385.224 140.594 385.136 140.386 384.96C140.178 384.768 140.074 384.512 140.074 384.192C140.074 383.872 140.178 383.616 140.386 383.424C140.594 383.216 140.85 383.112 141.154 383.112C141.458 383.112 141.706 383.208 141.898 383.4C142.106 383.576 142.21 383.832 142.21 384.168C142.21 384.504 142.106 384.768 141.898 384.96C141.706 385.136 141.458 385.224 141.154 385.224ZM138.154 399V397.944H140.386V388.512H138.154V387.456H141.898V397.944H144.154V399H138.154ZM148.763 399.12C147.643 399.12 146.739 398.84 146.051 398.28C145.379 397.72 145.043 396.912 145.043 395.856C145.043 394.832 145.491 393.992 146.387 393.336C147.283 392.68 148.747 392.352 150.779 392.352H151.787V391.992C151.787 390.712 151.563 389.816 151.115 389.304C150.683 388.776 150.067 388.512 149.267 388.512C148.835 388.512 148.403 388.56 147.971 388.656C147.539 388.736 146.883 388.888 146.003 389.112L145.715 387.96C147.059 387.512 148.259 387.288 149.315 387.288C150.531 387.288 151.491 387.648 152.195 388.368C152.915 389.072 153.275 390.208 153.275 391.776V399H152.195L151.955 398.232C151.667 398.456 151.211 398.664 150.587 398.856C149.963 399.032 149.355 399.12 148.763 399.12ZM148.979 397.92C149.475 397.92 149.987 397.848 150.515 397.704C151.043 397.544 151.467 397.36 151.787 397.152V393.456H151.139C149.811 393.456 148.699 393.608 147.803 393.912C146.907 394.216 146.459 394.824 146.459 395.736C146.459 396.456 146.675 397 147.107 397.368C147.539 397.736 148.163 397.92 148.979 397.92ZM159.44 399.12C158.624 399.104 157.992 398.928 157.544 398.592C157.096 398.256 156.784 397.76 156.608 397.104C156.448 396.448 156.368 395.568 156.368 394.464V388.512H154.568V387.456H156.416L156.704 384.144H157.88V387.456H161.48V388.512H157.88V394.488C157.88 395.48 157.952 396.216 158.096 396.696C158.256 397.176 158.464 397.496 158.72 397.656C158.992 397.8 159.368 397.872 159.848 397.872C160.712 397.872 161.296 397.848 161.6 397.8L161.672 399C161.048 399.08 160.304 399.12 159.44 399.12ZM166.048 385.224C165.744 385.224 165.488 385.136 165.28 384.96C165.072 384.768 164.968 384.512 164.968 384.192C164.968 383.872 165.072 383.616 165.28 383.424C165.488 383.216 165.744 383.112 166.048 383.112C166.352 383.112 166.6 383.208 166.792 383.4C167 383.576 167.104 383.832 167.104 384.168C167.104 384.504 167 384.768 166.792 384.96C166.6 385.136 166.352 385.224 166.048 385.224ZM163.048 399V397.944H165.28V388.512H163.048V387.456H166.792V397.944H169.048V399H163.048ZM173.272 399L169.432 387.456H170.944L174.088 397.392L177.064 387.456H178.6L174.88 399H173.272ZM184.152 399.12C182.632 399.12 181.504 398.608 180.768 397.584C180.032 396.544 179.664 395.08 179.664 393.192C179.664 391.224 180.024 389.752 180.744 388.776C181.464 387.784 182.6 387.288 184.152 387.288C185.704 387.288 186.84 387.784 187.56 388.776C188.296 389.752 188.664 391.224 188.664 393.192C188.664 395.08 188.296 396.544 187.56 397.584C186.824 398.608 185.688 399.12 184.152 399.12ZM184.152 397.872C185.256 397.872 186.032 397.472 186.48 396.672C186.928 395.872 187.152 394.712 187.152 393.192C187.152 391.704 186.92 390.552 186.456 389.736C186.008 388.92 185.24 388.512 184.152 388.512C183.064 388.512 182.288 388.92 181.824 389.736C181.376 390.552 181.152 391.704 181.152 393.192C181.152 394.712 181.376 395.872 181.824 396.672C182.272 397.472 183.048 397.872 184.152 397.872ZM200.03 394.608C199.358 394.608 198.782 394.376 198.302 393.912C197.838 393.432 197.606 392.856 197.606 392.184C197.606 391.512 197.838 390.936 198.302 390.456C198.782 389.976 199.358 389.736 200.03 389.736C200.718 389.736 201.294 389.976 201.758 390.456C202.238 390.936 202.478 391.512 202.478 392.184C202.478 392.856 202.238 393.432 201.758 393.912C201.294 394.376 200.718 394.608 200.03 394.608ZM216.753 399.12C215.377 399.12 214.305 398.824 213.537 398.232C212.785 397.64 212.257 396.792 211.953 395.688C211.665 394.568 211.521 393.144 211.521 391.416C211.521 389.704 211.673 388.296 211.977 387.192C212.297 386.072 212.841 385.224 213.609 384.648C214.377 384.056 215.425 383.76 216.753 383.76C218.081 383.76 219.129 384.056 219.897 384.648C220.665 385.224 221.209 386.072 221.529 387.192C221.849 388.296 222.009 389.704 222.009 391.416C222.009 393.16 221.857 394.584 221.553 395.688C221.265 396.792 220.737 397.64 219.969 398.232C219.201 398.824 218.129 399.12 216.753 399.12ZM216.753 397.872C217.729 397.872 218.489 397.648 219.033 397.2C219.577 396.752 219.961 396.072 220.185 395.16C220.409 394.232 220.521 392.992 220.521 391.44C220.521 389.888 220.401 388.648 220.161 387.72C219.937 386.792 219.553 386.112 219.009 385.68C218.465 385.232 217.713 385.008 216.753 385.008C215.793 385.008 215.041 385.232 214.497 385.68C213.969 386.112 213.585 386.792 213.345 387.72C213.121 388.648 213.009 389.888 213.009 391.44C213.009 392.992 213.121 394.232 213.345 395.16C213.569 396.072 213.953 396.752 214.497 397.2C215.041 397.648 215.793 397.872 216.753 397.872ZM224.116 387.456H225.556L225.604 388.464C226.052 388.16 226.628 387.896 227.332 387.672C228.052 387.448 228.716 387.32 229.324 387.288V388.536C228.636 388.536 227.94 388.64 227.236 388.848C226.548 389.056 226.012 389.296 225.628 389.568V399H224.116V387.456ZM235.117 402.984C233.389 402.984 232.181 402.68 231.493 402.072C230.821 401.48 230.485 400.816 230.485 400.08C230.485 399.648 230.629 399.216 230.917 398.784C231.205 398.336 231.493 398.032 231.781 397.872C231.525 397.696 231.317 397.456 231.157 397.152C231.013 396.832 230.941 396.52 230.941 396.216C230.941 395.8 231.029 395.416 231.205 395.064C231.381 394.696 231.693 394.192 232.141 393.552C231.277 392.8 230.845 391.928 230.845 390.936C230.845 389.704 231.269 388.792 232.117 388.2C232.965 387.592 234.061 387.288 235.405 387.288C235.773 387.288 236.197 387.336 236.677 387.432C236.757 387.448 236.901 387.472 237.109 387.504C237.333 387.536 237.557 387.552 237.781 387.552H241.141V388.656H238.549C238.949 388.96 239.253 389.336 239.461 389.784C239.685 390.232 239.797 390.672 239.797 391.104C239.797 392.16 239.397 393.008 238.597 393.648C237.813 394.272 236.773 394.584 235.477 394.584C234.565 394.584 233.757 394.44 233.053 394.152C232.541 394.952 232.285 395.576 232.285 396.024C232.285 396.216 232.309 396.392 232.357 396.552C232.421 396.696 232.477 396.816 232.525 396.912C232.589 396.992 232.629 397.04 232.645 397.056H237.085C238.317 397.056 239.173 397.256 239.653 397.656C240.149 398.04 240.397 398.648 240.397 399.48C240.397 400.04 240.229 400.584 239.893 401.112C239.573 401.64 239.021 402.08 238.237 402.432C237.453 402.8 236.413 402.984 235.117 402.984ZM235.357 393.432C236.365 393.432 237.125 393.232 237.637 392.832C238.165 392.432 238.429 391.84 238.429 391.056C238.429 390.288 238.181 389.656 237.685 389.16C237.189 388.648 236.453 388.392 235.477 388.392C234.389 388.392 233.597 388.624 233.101 389.088C232.605 389.552 232.357 390.168 232.357 390.936C232.357 391.736 232.621 392.352 233.149 392.784C233.677 393.216 234.413 393.432 235.357 393.432ZM235.189 401.76C236.453 401.76 237.405 401.544 238.045 401.112C238.685 400.68 239.005 400.168 239.005 399.576C239.005 399.128 238.885 398.792 238.645 398.568C238.421 398.344 237.965 398.232 237.277 398.232H232.837C232.261 398.776 231.973 399.344 231.973 399.936C231.973 400.272 232.037 400.568 232.165 400.824C232.293 401.08 232.589 401.296 233.053 401.472C233.533 401.664 234.245 401.76 235.189 401.76ZM245.922 399.12C244.802 399.12 243.898 398.84 243.21 398.28C242.538 397.72 242.202 396.912 242.202 395.856C242.202 394.832 242.65 393.992 243.546 393.336C244.442 392.68 245.906 392.352 247.938 392.352H248.946V391.992C248.946 390.712 248.722 389.816 248.274 389.304C247.842 388.776 247.226 388.512 246.426 388.512C245.994 388.512 245.562 388.56 245.13 388.656C244.698 388.736 244.042 388.888 243.162 389.112L242.874 387.96C244.218 387.512 245.418 387.288 246.474 387.288C247.69 387.288 248.65 387.648 249.354 388.368C250.074 389.072 250.434 390.208 250.434 391.776V399H249.354L249.114 398.232C248.826 398.456 248.37 398.664 247.746 398.856C247.122 399.032 246.514 399.12 245.922 399.12ZM246.138 397.92C246.634 397.92 247.146 397.848 247.674 397.704C248.202 397.544 248.626 397.36 248.946 397.152V393.456H248.298C246.97 393.456 245.858 393.608 244.962 393.912C244.066 394.216 243.618 394.824 243.618 395.736C243.618 396.456 243.834 397 244.266 397.368C244.698 397.736 245.322 397.92 246.138 397.92ZM252.758 387.456H254.006L254.102 388.2C254.87 387.848 255.51 387.608 256.022 387.48C256.534 387.352 257.086 387.288 257.678 387.288C258.878 387.288 259.758 387.608 260.318 388.248C260.878 388.888 261.158 389.88 261.158 391.224V399H259.67V391.176C259.67 390.232 259.518 389.552 259.214 389.136C258.91 388.72 258.374 388.512 257.606 388.512C257.046 388.512 256.502 388.568 255.974 388.68C255.462 388.792 254.894 389.024 254.27 389.376V399H252.758V387.456ZM266.113 385.224C265.809 385.224 265.553 385.136 265.345 384.96C265.137 384.768 265.033 384.512 265.033 384.192C265.033 383.872 265.137 383.616 265.345 383.424C265.553 383.216 265.809 383.112 266.113 383.112C266.417 383.112 266.665 383.208 266.857 383.4C267.065 383.576 267.169 383.832 267.169 384.168C267.169 384.504 267.065 384.768 266.857 384.96C266.665 385.136 266.417 385.224 266.113 385.224ZM263.113 399V397.944H265.345V388.512H263.113V387.456H266.857V397.944H269.113V399H263.113ZM270.289 399L270.121 397.872L275.425 388.512H270.241V387.456H276.937L277.057 388.464L271.777 397.944H277.225V399H270.289ZM282.113 399.12C280.993 399.12 280.089 398.84 279.401 398.28C278.729 397.72 278.393 396.912 278.393 395.856C278.393 394.832 278.841 393.992 279.737 393.336C280.633 392.68 282.097 392.352 284.129 392.352H285.137V391.992C285.137 390.712 284.913 389.816 284.465 389.304C284.033 388.776 283.417 388.512 282.617 388.512C282.185 388.512 281.753 388.56 281.321 388.656C280.889 388.736 280.233 388.888 279.353 389.112L279.065 387.96C280.409 387.512 281.609 387.288 282.665 387.288C283.881 387.288 284.841 387.648 285.545 388.368C286.265 389.072 286.625 390.208 286.625 391.776V399H285.545L285.305 398.232C285.017 398.456 284.561 398.664 283.937 398.856C283.313 399.032 282.705 399.12 282.113 399.12ZM282.329 397.92C282.825 397.92 283.337 397.848 283.865 397.704C284.393 397.544 284.817 397.36 285.137 397.152V393.456H284.489C283.161 393.456 282.049 393.608 281.153 393.912C280.257 394.216 279.809 394.824 279.809 395.736C279.809 396.456 280.025 397 280.457 397.368C280.889 397.736 281.513 397.92 282.329 397.92ZM293.629 399.792C294.317 399.792 294.853 399.936 295.237 400.224C295.621 400.512 295.813 400.92 295.813 401.448C295.813 402.152 295.605 402.68 295.189 403.032C294.789 403.4 294.277 403.584 293.653 403.584C293.141 403.584 292.621 403.464 292.093 403.224L292.285 402.288C292.669 402.48 293.045 402.576 293.413 402.576C293.749 402.576 294.013 402.488 294.205 402.312C294.397 402.136 294.493 401.872 294.493 401.52C294.493 401.2 294.397 400.96 294.205 400.8C294.029 400.64 293.829 400.536 293.605 400.488C293.397 400.456 293.029 400.416 292.501 400.368L292.525 399.072C291.341 398.88 290.389 398.288 289.669 397.296C288.949 396.288 288.589 394.92 288.589 393.192C288.589 389.256 290.101 387.288 293.125 387.288C294.213 387.288 295.245 387.52 296.221 387.984V391.008L295.021 391.128V388.776C294.541 388.584 293.901 388.488 293.101 388.488C291.997 388.488 291.213 388.896 290.749 389.712C290.301 390.528 290.077 391.696 290.077 393.216C290.077 394.704 290.373 395.856 290.965 396.672C291.573 397.488 292.389 397.896 293.413 397.896C294.341 397.896 295.237 397.6 296.101 397.008L296.677 398.064C295.829 398.704 294.845 399.048 293.725 399.096L293.629 399.792ZM301.474 399.12C300.354 399.12 299.45 398.84 298.762 398.28C298.09 397.72 297.754 396.912 297.754 395.856C297.754 394.832 298.202 393.992 299.098 393.336C299.994 392.68 301.458 392.352 303.49 392.352H304.498V391.992C304.498 390.712 304.274 389.816 303.826 389.304C303.394 388.776 302.778 388.512 301.978 388.512C301.546 388.512 301.114 388.56 300.682 388.656C300.25 388.736 299.594 388.888 298.714 389.112L298.426 387.96C299.77 387.512 300.97 387.288 302.026 387.288C303.242 387.288 304.202 387.648 304.906 388.368C305.626 389.072 305.986 390.208 305.986 391.776V399H304.906L304.666 398.232C304.378 398.456 303.922 398.664 303.298 398.856C302.674 399.032 302.066 399.12 301.474 399.12ZM301.69 397.92C302.186 397.92 302.698 397.848 303.226 397.704C303.754 397.544 304.178 397.36 304.498 397.152V393.456H303.85C302.522 393.456 301.41 393.608 300.514 393.912C299.618 394.216 299.17 394.824 299.17 395.736C299.17 396.456 299.386 397 299.818 397.368C300.25 397.736 300.874 397.92 301.69 397.92ZM298.306 384.84H298.33C298.666 384.12 298.97 383.616 299.242 383.328C299.53 383.04 299.866 382.896 300.25 382.896C300.49 382.896 300.77 382.952 301.09 383.064C301.426 383.176 301.874 383.352 302.434 383.592C302.514 383.624 302.706 383.704 303.01 383.832C303.33 383.944 303.578 384 303.754 384C303.946 384 304.114 383.928 304.258 383.784C304.402 383.64 304.594 383.376 304.834 382.992L305.77 383.52C305.466 384.176 305.162 384.648 304.858 384.936C304.554 385.208 304.194 385.344 303.778 385.344C303.33 385.344 302.626 385.136 301.666 384.72C301.394 384.592 301.146 384.488 300.922 384.408C300.698 384.312 300.514 384.264 300.37 384.264C300.162 384.264 299.978 384.352 299.818 384.528C299.658 384.688 299.466 384.976 299.242 385.392L298.306 384.84ZM312.438 399.12C310.918 399.12 309.79 398.608 309.054 397.584C308.318 396.544 307.95 395.08 307.95 393.192C307.95 391.224 308.31 389.752 309.03 388.776C309.75 387.784 310.886 387.288 312.438 387.288C313.99 387.288 315.126 387.784 315.846 388.776C316.582 389.752 316.95 391.224 316.95 393.192C316.95 395.08 316.582 396.544 315.846 397.584C315.11 398.608 313.974 399.12 312.438 399.12ZM312.438 397.872C313.542 397.872 314.318 397.472 314.766 396.672C315.214 395.872 315.438 394.712 315.438 393.192C315.438 391.704 315.206 390.552 314.742 389.736C314.294 388.92 313.526 388.512 312.438 388.512C311.35 388.512 310.574 388.92 310.11 389.736C309.662 390.552 309.438 391.704 309.438 393.192C309.438 394.712 309.662 395.872 310.11 396.672C310.558 397.472 311.334 397.872 312.438 397.872ZM328.316 394.608C327.644 394.608 327.068 394.376 326.588 393.912C326.124 393.432 325.892 392.856 325.892 392.184C325.892 391.512 326.124 390.936 326.588 390.456C327.068 389.976 327.644 389.736 328.316 389.736C329.004 389.736 329.58 389.976 330.044 390.456C330.524 390.936 330.764 391.512 330.764 392.184C330.764 392.856 330.524 393.432 330.044 393.912C329.58 394.376 329.004 394.608 328.316 394.608ZM340.192 399V383.952H347.992L347.776 385.128H341.68V390.84H347.032V391.944H341.68V399H340.192ZM348.28 399V397.944H350.896V384.144H348.304V383.088H352.408V397.944H354.88V399H348.28ZM360.737 399.12C357.425 399.12 355.769 397.144 355.769 393.192C355.769 391.224 356.193 389.752 357.041 388.776C357.889 387.784 359.025 387.288 360.449 387.288C361.729 387.288 362.737 387.712 363.473 388.56C364.225 389.392 364.601 390.512 364.601 391.92L364.553 393L364.505 393.504H357.257C357.273 395.152 357.593 396.296 358.217 396.936C358.841 397.56 359.649 397.872 360.641 397.872C361.249 397.872 361.817 397.8 362.345 397.656C362.873 397.512 363.401 397.272 363.929 396.936L364.385 398.112C363.841 398.448 363.241 398.704 362.585 398.88C361.945 399.04 361.329 399.12 360.737 399.12ZM363.209 392.448V391.872C363.209 390.848 362.961 390.032 362.465 389.424C361.969 388.816 361.297 388.512 360.449 388.512C359.473 388.512 358.721 388.856 358.193 389.544C357.665 390.232 357.353 391.2 357.257 392.448H363.209ZM365.505 399L368.985 393.096L365.649 387.456H367.137L369.825 392.208L372.321 387.456H373.833L370.713 393.096L374.049 399H372.609L369.849 394.032L367.041 399H365.505ZM378.156 385.224C377.852 385.224 377.596 385.136 377.388 384.96C377.18 384.768 377.076 384.512 377.076 384.192C377.076 383.872 377.18 383.616 377.388 383.424C377.596 383.216 377.852 383.112 378.156 383.112C378.46 383.112 378.708 383.208 378.9 383.4C379.108 383.576 379.212 383.832 379.212 384.168C379.212 384.504 379.108 384.768 378.9 384.96C378.708 385.136 378.46 385.224 378.156 385.224ZM375.156 399V397.944H377.388V388.512H375.156V387.456H378.9V397.944H381.156V399H375.156ZM386.749 399.12C386.269 399.12 385.757 399.064 385.213 398.952C384.685 398.84 384.197 398.664 383.749 398.424L383.629 399H382.405V383.088H383.917V388.176C384.477 387.84 385.013 387.608 385.525 387.48C386.037 387.352 386.565 387.288 387.109 387.288C388.325 387.288 389.285 387.776 389.989 388.752C390.693 389.712 391.045 391.2 391.045 393.216C391.045 395.312 390.685 396.824 389.965 397.752C389.261 398.664 388.189 399.12 386.749 399.12ZM386.533 397.872C387.589 397.872 388.349 397.52 388.813 396.816C389.293 396.096 389.533 394.904 389.533 393.24C389.533 391.608 389.325 390.416 388.909 389.664C388.493 388.896 387.829 388.512 386.917 388.512C386.069 388.512 385.069 388.848 383.917 389.52V397.392C384.349 397.6 384.733 397.736 385.069 397.8C385.405 397.848 385.781 397.872 386.197 397.872H386.533ZM395.736 385.224C395.432 385.224 395.176 385.136 394.968 384.96C394.76 384.768 394.656 384.512 394.656 384.192C394.656 383.872 394.76 383.616 394.968 383.424C395.176 383.216 395.432 383.112 395.736 383.112C396.04 383.112 396.288 383.208 396.48 383.4C396.688 383.576 396.792 383.832 396.792 384.168C396.792 384.504 396.688 384.768 396.48 384.96C396.288 385.136 396.04 385.224 395.736 385.224ZM392.736 399V397.944H394.968V388.512H392.736V387.456H396.48V397.944H398.736V399H392.736ZM399.169 399V397.944H401.785V384.144H399.193V383.088H403.297V397.944H405.769V399H399.169ZM409.777 385.224C409.473 385.224 409.217 385.136 409.009 384.96C408.801 384.768 408.697 384.512 408.697 384.192C408.697 383.872 408.801 383.616 409.009 383.424C409.217 383.216 409.473 383.112 409.777 383.112C410.081 383.112 410.329 383.208 410.521 383.4C410.729 383.576 410.833 383.832 410.833 384.168C410.833 384.504 410.729 384.768 410.521 384.96C410.329 385.136 410.081 385.224 409.777 385.224ZM406.777 399V397.944H409.009V388.512H406.777V387.456H410.521V397.944H412.777V399H406.777ZM418.418 399.12C416.93 399.12 415.762 398.648 414.914 397.704C414.082 396.76 413.666 395.264 413.666 393.216C413.666 391.872 413.858 390.76 414.242 389.88C414.642 388.984 415.17 388.328 415.826 387.912C416.498 387.496 417.242 387.288 418.058 387.288C418.586 387.288 419.082 387.352 419.546 387.48C420.01 387.608 420.522 387.84 421.082 388.176V383.088H422.594V399H421.37L421.25 398.424C420.37 398.888 419.426 399.12 418.418 399.12ZM418.946 397.872C419.33 397.872 419.674 397.848 419.978 397.8C420.282 397.736 420.65 397.6 421.082 397.392V389.52C420.458 389.152 419.93 388.896 419.498 388.752C419.066 388.592 418.65 388.512 418.25 388.512C417.29 388.512 416.53 388.912 415.97 389.712C415.426 390.496 415.154 391.672 415.154 393.24C415.154 396.328 416.314 397.872 418.634 397.872H418.946ZM428.262 399.12C427.142 399.12 426.238 398.84 425.55 398.28C424.878 397.72 424.542 396.912 424.542 395.856C424.542 394.832 424.99 393.992 425.886 393.336C426.782 392.68 428.246 392.352 430.278 392.352H431.286V391.992C431.286 390.712 431.062 389.816 430.614 389.304C430.182 388.776 429.566 388.512 428.766 388.512C428.334 388.512 427.902 388.56 427.47 388.656C427.038 388.736 426.382 388.888 425.502 389.112L425.214 387.96C426.558 387.512 427.758 387.288 428.814 387.288C430.03 387.288 430.99 387.648 431.694 388.368C432.414 389.072 432.774 390.208 432.774 391.776V399H431.694L431.454 398.232C431.166 398.456 430.71 398.664 430.086 398.856C429.462 399.032 428.854 399.12 428.262 399.12ZM428.478 397.92C428.974 397.92 429.486 397.848 430.014 397.704C430.542 397.544 430.966 397.36 431.286 397.152V393.456H430.638C429.31 393.456 428.198 393.608 427.302 393.912C426.406 394.216 425.958 394.824 425.958 395.736C425.958 396.456 426.174 397 426.606 397.368C427.038 397.736 427.662 397.92 428.478 397.92ZM439.49 399.12C438.002 399.12 436.834 398.648 435.986 397.704C435.154 396.76 434.738 395.264 434.738 393.216C434.738 391.872 434.93 390.76 435.314 389.88C435.714 388.984 436.242 388.328 436.898 387.912C437.57 387.496 438.314 387.288 439.13 387.288C439.658 387.288 440.154 387.352 440.618 387.48C441.082 387.608 441.594 387.84 442.154 388.176V383.088H443.666V399H442.442L442.322 398.424C441.442 398.888 440.498 399.12 439.49 399.12ZM440.018 397.872C440.402 397.872 440.746 397.848 441.05 397.8C441.354 397.736 441.722 397.6 442.154 397.392V389.52C441.53 389.152 441.002 388.896 440.57 388.752C440.138 388.592 439.722 388.512 439.322 388.512C438.362 388.512 437.602 388.912 437.042 389.712C436.498 390.496 436.226 391.672 436.226 393.24C436.226 396.328 437.386 397.872 439.706 397.872H440.018ZM450.582 399.12C447.27 399.12 445.614 397.144 445.614 393.192C445.614 391.224 446.038 389.752 446.886 388.776C447.734 387.784 448.87 387.288 450.294 387.288C451.574 387.288 452.582 387.712 453.318 388.56C454.07 389.392 454.446 390.512 454.446 391.92L454.398 393L454.35 393.504H447.102C447.118 395.152 447.438 396.296 448.062 396.936C448.686 397.56 449.494 397.872 450.486 397.872C451.094 397.872 451.662 397.8 452.19 397.656C452.718 397.512 453.246 397.272 453.774 396.936L454.23 398.112C453.686 398.448 453.086 398.704 452.43 398.88C451.79 399.04 451.174 399.12 450.582 399.12ZM453.054 392.448V391.872C453.054 390.848 452.806 390.032 452.31 389.424C451.814 388.816 451.142 388.512 450.294 388.512C449.318 388.512 448.566 388.856 448.038 389.544C447.51 390.232 447.198 391.2 447.102 392.448H453.054ZM32.008 430.12C30.92 430.12 29.952 429.848 29.104 429.304C28.272 428.744 27.608 427.896 27.112 426.76C26.632 425.624 26.392 424.2 26.392 422.488C26.392 419.752 26.832 417.784 27.712 416.584C28.608 415.368 29.992 414.76 31.864 414.76C33.096 414.76 34.312 415.048 35.512 415.624V418.48H34.216V416.44C33.56 416.152 32.824 416.008 32.008 416.008C31.064 416.008 30.296 416.192 29.704 416.56C29.112 416.912 28.656 417.56 28.336 418.504C28.032 419.448 27.88 420.784 27.88 422.512C27.88 424.672 28.264 426.272 29.032 427.312C29.8 428.352 30.824 428.872 32.104 428.872C33.192 428.872 34.272 428.616 35.344 428.104L35.824 429.256C34.608 429.832 33.336 430.12 32.008 430.12ZM41.6828 430.12C40.1628 430.12 39.0348 429.608 38.2988 428.584C37.5628 427.544 37.1948 426.08 37.1948 424.192C37.1948 422.224 37.5548 420.752 38.2748 419.776C38.9948 418.784 40.1308 418.288 41.6828 418.288C43.2348 418.288 44.3708 418.784 45.0908 419.776C45.8268 420.752 46.1948 422.224 46.1948 424.192C46.1948 426.08 45.8268 427.544 45.0908 428.584C44.3548 429.608 43.2188 430.12 41.6828 430.12ZM41.6828 428.872C42.7868 428.872 43.5628 428.472 44.0108 427.672C44.4588 426.872 44.6828 425.712 44.6828 424.192C44.6828 422.704 44.4508 421.552 43.9868 420.736C43.5388 419.92 42.7708 419.512 41.6828 419.512C40.5948 419.512 39.8188 419.92 39.3548 420.736C38.9068 421.552 38.6828 422.704 38.6828 424.192C38.6828 425.712 38.9068 426.872 39.3548 427.672C39.8028 428.472 40.5788 428.872 41.6828 428.872ZM47.3101 430V428.944H49.9261V415.144H47.3341V414.088H51.4381V428.944H53.9101V430H47.3101ZM58.5183 430.12C57.3983 430.12 56.4943 429.84 55.8063 429.28C55.1343 428.72 54.7983 427.912 54.7983 426.856C54.7983 425.832 55.2463 424.992 56.1423 424.336C57.0383 423.68 58.5023 423.352 60.5343 423.352H61.5423V422.992C61.5423 421.712 61.3183 420.816 60.8703 420.304C60.4383 419.776 59.8223 419.512 59.0223 419.512C58.5903 419.512 58.1583 419.56 57.7263 419.656C57.2943 419.736 56.6383 419.888 55.7583 420.112L55.4703 418.96C56.8143 418.512 58.0143 418.288 59.0703 418.288C60.2863 418.288 61.2463 418.648 61.9503 419.368C62.6703 420.072 63.0303 421.208 63.0303 422.776V430H61.9503L61.7103 429.232C61.4223 429.456 60.9663 429.664 60.3423 429.856C59.7183 430.032 59.1103 430.12 58.5183 430.12ZM58.7343 428.92C59.2303 428.92 59.7423 428.848 60.2703 428.704C60.7983 428.544 61.2223 428.36 61.5423 428.152V424.456H60.8943C59.5663 424.456 58.4543 424.608 57.5583 424.912C56.6623 425.216 56.2143 425.824 56.2143 426.736C56.2143 427.456 56.4303 428 56.8623 428.368C57.2943 428.736 57.9183 428.92 58.7343 428.92ZM69.6985 430.12C69.2185 430.12 68.7065 430.064 68.1625 429.952C67.6345 429.84 67.1465 429.664 66.6985 429.424L66.5785 430H65.3545V414.088H66.8665V419.176C67.4265 418.84 67.9625 418.608 68.4745 418.48C68.9865 418.352 69.5145 418.288 70.0585 418.288C71.2745 418.288 72.2345 418.776 72.9385 419.752C73.6425 420.712 73.9945 422.2 73.9945 424.216C73.9945 426.312 73.6345 427.824 72.9145 428.752C72.2105 429.664 71.1385 430.12 69.6985 430.12ZM69.4825 428.872C70.5385 428.872 71.2985 428.52 71.7625 427.816C72.2425 427.096 72.4825 425.904 72.4825 424.24C72.4825 422.608 72.2745 421.416 71.8585 420.664C71.4425 419.896 70.7785 419.512 69.8665 419.512C69.0185 419.512 68.0185 419.848 66.8665 420.52V428.392C67.2985 428.6 67.6825 428.736 68.0185 428.8C68.3545 428.848 68.7305 428.872 69.1465 428.872H69.4825ZM80.0538 430.12C78.5338 430.12 77.4058 429.608 76.6698 428.584C75.9338 427.544 75.5658 426.08 75.5658 424.192C75.5658 422.224 75.9258 420.752 76.6458 419.776C77.3658 418.784 78.5018 418.288 80.0538 418.288C81.6058 418.288 82.7418 418.784 83.4618 419.776C84.1978 420.752 84.5658 422.224 84.5658 424.192C84.5658 426.08 84.1978 427.544 83.4618 428.584C82.7258 429.608 81.5898 430.12 80.0538 430.12ZM80.0538 428.872C81.1578 428.872 81.9338 428.472 82.3818 427.672C82.8298 426.872 83.0538 425.712 83.0538 424.192C83.0538 422.704 82.8218 421.552 82.3578 420.736C81.9098 419.92 81.1418 419.512 80.0538 419.512C78.9658 419.512 78.1898 419.92 77.7258 420.736C77.2778 421.552 77.0538 422.704 77.0538 424.192C77.0538 425.712 77.2778 426.872 77.7258 427.672C78.1738 428.472 78.9498 428.872 80.0538 428.872ZM86.569 418.456H88.009L88.057 419.464C88.505 419.16 89.081 418.896 89.785 418.672C90.505 418.448 91.169 418.32 91.777 418.288V419.536C91.089 419.536 90.393 419.64 89.689 419.848C89.001 420.056 88.465 420.296 88.081 420.568V430H86.569V418.456ZM96.5376 430.12C95.4176 430.12 94.5136 429.84 93.8256 429.28C93.1536 428.72 92.8176 427.912 92.8176 426.856C92.8176 425.832 93.2656 424.992 94.1616 424.336C95.0576 423.68 96.5216 423.352 98.5536 423.352H99.5616V422.992C99.5616 421.712 99.3376 420.816 98.8896 420.304C98.4576 419.776 97.8416 419.512 97.0416 419.512C96.6096 419.512 96.1776 419.56 95.7456 419.656C95.3136 419.736 94.6576 419.888 93.7776 420.112L93.4896 418.96C94.8336 418.512 96.0336 418.288 97.0896 418.288C98.3056 418.288 99.2656 418.648 99.9696 419.368C100.69 420.072 101.05 421.208 101.05 422.776V430H99.9696L99.7296 429.232C99.4416 429.456 98.9856 429.664 98.3616 429.856C97.7376 430.032 97.1296 430.12 96.5376 430.12ZM96.7536 428.92C97.2496 428.92 97.7616 428.848 98.2896 428.704C98.8176 428.544 99.2416 428.36 99.5616 428.152V424.456H98.9136C97.5856 424.456 96.4736 424.608 95.5776 424.912C94.6816 425.216 94.2336 425.824 94.2336 426.736C94.2336 427.456 94.4496 428 94.8816 428.368C95.3136 428.736 95.9376 428.92 96.7536 428.92ZM108.054 430.792C108.742 430.792 109.278 430.936 109.662 431.224C110.046 431.512 110.238 431.92 110.238 432.448C110.238 433.152 110.03 433.68 109.614 434.032C109.214 434.4 108.702 434.584 108.078 434.584C107.566 434.584 107.046 434.464 106.518 434.224L106.71 433.288C107.094 433.48 107.47 433.576 107.838 433.576C108.174 433.576 108.438 433.488 108.63 433.312C108.822 433.136 108.918 432.872 108.918 432.52C108.918 432.2 108.822 431.96 108.63 431.8C108.454 431.64 108.254 431.536 108.03 431.488C107.822 431.456 107.454 431.416 106.926 431.368L106.95 430.072C105.766 429.88 104.814 429.288 104.094 428.296C103.374 427.288 103.014 425.92 103.014 424.192C103.014 420.256 104.526 418.288 107.55 418.288C108.638 418.288 109.67 418.52 110.646 418.984V422.008L109.446 422.128V419.776C108.966 419.584 108.326 419.488 107.526 419.488C106.422 419.488 105.638 419.896 105.174 420.712C104.726 421.528 104.502 422.696 104.502 424.216C104.502 425.704 104.798 426.856 105.39 427.672C105.998 428.488 106.814 428.896 107.838 428.896C108.766 428.896 109.662 428.6 110.526 428.008L111.102 429.064C110.254 429.704 109.27 430.048 108.15 430.096L108.054 430.792ZM115.899 430.12C114.779 430.12 113.875 429.84 113.187 429.28C112.515 428.72 112.179 427.912 112.179 426.856C112.179 425.832 112.627 424.992 113.523 424.336C114.419 423.68 115.883 423.352 117.915 423.352H118.923V422.992C118.923 421.712 118.699 420.816 118.251 420.304C117.819 419.776 117.203 419.512 116.403 419.512C115.971 419.512 115.539 419.56 115.107 419.656C114.675 419.736 114.019 419.888 113.139 420.112L112.851 418.96C114.195 418.512 115.395 418.288 116.451 418.288C117.667 418.288 118.627 418.648 119.331 419.368C120.051 420.072 120.411 421.208 120.411 422.776V430H119.331L119.091 429.232C118.803 429.456 118.347 429.664 117.723 429.856C117.099 430.032 116.491 430.12 115.899 430.12ZM116.115 428.92C116.611 428.92 117.123 428.848 117.651 428.704C118.179 428.544 118.603 428.36 118.923 428.152V424.456H118.275C116.947 424.456 115.835 424.608 114.939 424.912C114.043 425.216 113.595 425.824 113.595 426.736C113.595 427.456 113.811 428 114.243 428.368C114.675 428.736 115.299 428.92 116.115 428.92ZM112.731 415.84H112.755C113.091 415.12 113.395 414.616 113.667 414.328C113.955 414.04 114.291 413.896 114.675 413.896C114.915 413.896 115.195 413.952 115.515 414.064C115.851 414.176 116.299 414.352 116.859 414.592C116.939 414.624 117.131 414.704 117.435 414.832C117.755 414.944 118.003 415 118.179 415C118.371 415 118.539 414.928 118.683 414.784C118.827 414.64 119.019 414.376 119.259 413.992L120.195 414.52C119.891 415.176 119.587 415.648 119.283 415.936C118.979 416.208 118.619 416.344 118.203 416.344C117.755 416.344 117.051 416.136 116.091 415.72C115.819 415.592 115.571 415.488 115.347 415.408C115.123 415.312 114.939 415.264 114.795 415.264C114.587 415.264 114.403 415.352 114.243 415.528C114.083 415.688 113.891 415.976 113.667 416.392L112.731 415.84ZM126.863 430.12C125.343 430.12 124.215 429.608 123.479 428.584C122.743 427.544 122.375 426.08 122.375 424.192C122.375 422.224 122.735 420.752 123.455 419.776C124.175 418.784 125.311 418.288 126.863 418.288C128.415 418.288 129.551 418.784 130.271 419.776C131.007 420.752 131.375 422.224 131.375 424.192C131.375 426.08 131.007 427.544 130.271 428.584C129.535 429.608 128.399 430.12 126.863 430.12ZM126.863 428.872C127.967 428.872 128.743 428.472 129.191 427.672C129.639 426.872 129.863 425.712 129.863 424.192C129.863 422.704 129.631 421.552 129.167 420.736C128.719 419.92 127.951 419.512 126.863 419.512C125.775 419.512 124.999 419.92 124.535 420.736C124.087 421.552 123.863 422.704 123.863 424.192C123.863 425.712 124.087 426.872 124.535 427.672C124.983 428.472 125.759 428.872 126.863 428.872ZM142.741 425.608C142.069 425.608 141.493 425.376 141.013 424.912C140.549 424.432 140.317 423.856 140.317 423.184C140.317 422.512 140.549 421.936 141.013 421.456C141.493 420.976 142.069 420.736 142.741 420.736C143.429 420.736 144.005 420.976 144.469 421.456C144.949 421.936 145.189 422.512 145.189 423.184C145.189 423.856 144.949 424.432 144.469 424.912C144.005 425.376 143.429 425.608 142.741 425.608ZM154.161 430V428.824H156.417V416.128H154.161V414.952H160.089V416.128H157.929V428.824H160.137V430H154.161ZM162.091 418.456H163.339L163.435 419.2C164.203 418.848 164.843 418.608 165.355 418.48C165.867 418.352 166.419 418.288 167.011 418.288C168.211 418.288 169.091 418.608 169.651 419.248C170.211 419.888 170.491 420.88 170.491 422.224V430H169.003V422.176C169.003 421.232 168.851 420.552 168.547 420.136C168.243 419.72 167.707 419.512 166.939 419.512C166.379 419.512 165.835 419.568 165.307 419.68C164.795 419.792 164.227 420.024 163.603 420.376V430H162.091V418.456ZM176.814 430.12C175.294 430.12 174.166 429.608 173.43 428.584C172.694 427.544 172.326 426.08 172.326 424.192C172.326 422.224 172.686 420.752 173.406 419.776C174.126 418.784 175.262 418.288 176.814 418.288C178.366 418.288 179.502 418.784 180.222 419.776C180.958 420.752 181.326 422.224 181.326 424.192C181.326 426.08 180.958 427.544 180.222 428.584C179.486 429.608 178.35 430.12 176.814 430.12ZM176.814 428.872C177.918 428.872 178.694 428.472 179.142 427.672C179.59 426.872 179.814 425.712 179.814 424.192C179.814 422.704 179.582 421.552 179.118 420.736C178.67 419.92 177.902 419.512 176.814 419.512C175.726 419.512 174.95 419.92 174.486 420.736C174.038 421.552 173.814 422.704 173.814 424.192C173.814 425.712 174.038 426.872 174.486 427.672C174.934 428.472 175.71 428.872 176.814 428.872ZM186.233 430L182.393 418.456H183.905L187.049 428.392L190.025 418.456H191.561L187.841 430H186.233ZM196.345 430.12C195.225 430.12 194.321 429.84 193.633 429.28C192.961 428.72 192.625 427.912 192.625 426.856C192.625 425.832 193.073 424.992 193.969 424.336C194.865 423.68 196.329 423.352 198.361 423.352H199.369V422.992C199.369 421.712 199.145 420.816 198.697 420.304C198.265 419.776 197.649 419.512 196.849 419.512C196.417 419.512 195.985 419.56 195.553 419.656C195.121 419.736 194.465 419.888 193.585 420.112L193.297 418.96C194.641 418.512 195.841 418.288 196.897 418.288C198.113 418.288 199.073 418.648 199.777 419.368C200.497 420.072 200.857 421.208 200.857 422.776V430H199.777L199.537 429.232C199.249 429.456 198.793 429.664 198.169 429.856C197.545 430.032 196.937 430.12 196.345 430.12ZM196.561 428.92C197.057 428.92 197.569 428.848 198.097 428.704C198.625 428.544 199.049 428.36 199.369 428.152V424.456H198.721C197.393 424.456 196.281 424.608 195.385 424.912C194.489 425.216 194.041 425.824 194.041 426.736C194.041 427.456 194.257 428 194.689 428.368C195.121 428.736 195.745 428.92 196.561 428.92ZM207.861 430.792C208.549 430.792 209.085 430.936 209.469 431.224C209.853 431.512 210.045 431.92 210.045 432.448C210.045 433.152 209.837 433.68 209.421 434.032C209.021 434.4 208.509 434.584 207.885 434.584C207.373 434.584 206.853 434.464 206.325 434.224L206.517 433.288C206.901 433.48 207.277 433.576 207.645 433.576C207.981 433.576 208.245 433.488 208.437 433.312C208.629 433.136 208.725 432.872 208.725 432.52C208.725 432.2 208.629 431.96 208.437 431.8C208.261 431.64 208.061 431.536 207.837 431.488C207.629 431.456 207.261 431.416 206.733 431.368L206.757 430.072C205.573 429.88 204.621 429.288 203.901 428.296C203.181 427.288 202.821 425.92 202.821 424.192C202.821 420.256 204.333 418.288 207.357 418.288C208.445 418.288 209.477 418.52 210.453 418.984V422.008L209.253 422.128V419.776C208.773 419.584 208.133 419.488 207.333 419.488C206.229 419.488 205.445 419.896 204.981 420.712C204.533 421.528 204.309 422.696 204.309 424.216C204.309 425.704 204.605 426.856 205.197 427.672C205.805 428.488 206.621 428.896 207.645 428.896C208.573 428.896 209.469 428.6 210.333 428.008L210.909 429.064C210.061 429.704 209.077 430.048 207.957 430.096L207.861 430.792ZM215.706 430.12C214.586 430.12 213.682 429.84 212.994 429.28C212.322 428.72 211.986 427.912 211.986 426.856C211.986 425.832 212.434 424.992 213.33 424.336C214.226 423.68 215.69 423.352 217.722 423.352H218.73V422.992C218.73 421.712 218.506 420.816 218.058 420.304C217.626 419.776 217.01 419.512 216.21 419.512C215.778 419.512 215.346 419.56 214.914 419.656C214.482 419.736 213.826 419.888 212.946 420.112L212.658 418.96C214.002 418.512 215.202 418.288 216.258 418.288C217.474 418.288 218.434 418.648 219.138 419.368C219.858 420.072 220.218 421.208 220.218 422.776V430H219.138L218.898 429.232C218.61 429.456 218.154 429.664 217.53 429.856C216.906 430.032 216.298 430.12 215.706 430.12ZM215.922 428.92C216.418 428.92 216.93 428.848 217.458 428.704C217.986 428.544 218.41 428.36 218.73 428.152V424.456H218.082C216.754 424.456 215.642 424.608 214.746 424.912C213.85 425.216 213.402 425.824 213.402 426.736C213.402 427.456 213.618 428 214.05 428.368C214.482 428.736 215.106 428.92 215.922 428.92ZM212.538 415.84H212.562C212.898 415.12 213.202 414.616 213.474 414.328C213.762 414.04 214.098 413.896 214.482 413.896C214.722 413.896 215.002 413.952 215.322 414.064C215.658 414.176 216.106 414.352 216.666 414.592C216.746 414.624 216.938 414.704 217.242 414.832C217.562 414.944 217.81 415 217.986 415C218.178 415 218.346 414.928 218.49 414.784C218.634 414.64 218.826 414.376 219.066 413.992L220.002 414.52C219.698 415.176 219.394 415.648 219.09 415.936C218.786 416.208 218.426 416.344 218.01 416.344C217.562 416.344 216.858 416.136 215.898 415.72C215.626 415.592 215.378 415.488 215.154 415.408C214.93 415.312 214.746 415.264 214.602 415.264C214.394 415.264 214.21 415.352 214.05 415.528C213.89 415.688 213.698 415.976 213.474 416.392L212.538 415.84ZM226.67 430.12C225.15 430.12 224.022 429.608 223.286 428.584C222.55 427.544 222.182 426.08 222.182 424.192C222.182 422.224 222.542 420.752 223.262 419.776C223.982 418.784 225.118 418.288 226.67 418.288C228.222 418.288 229.358 418.784 230.078 419.776C230.814 420.752 231.182 422.224 231.182 424.192C231.182 426.08 230.814 427.544 230.078 428.584C229.342 429.608 228.206 430.12 226.67 430.12ZM226.67 428.872C227.774 428.872 228.55 428.472 228.998 427.672C229.446 426.872 229.67 425.712 229.67 424.192C229.67 422.704 229.438 421.552 228.974 420.736C228.526 419.92 227.758 419.512 226.67 419.512C225.582 419.512 224.806 419.92 224.342 420.736C223.894 421.552 223.67 422.704 223.67 424.192C223.67 425.712 223.894 426.872 224.342 427.672C224.79 428.472 225.566 428.872 226.67 428.872ZM242.548 425.608C241.876 425.608 241.3 425.376 240.82 424.912C240.356 424.432 240.124 423.856 240.124 423.184C240.124 422.512 240.356 421.936 240.82 421.456C241.3 420.976 241.876 420.736 242.548 420.736C243.236 420.736 243.812 420.976 244.276 421.456C244.756 421.936 244.996 422.512 244.996 423.184C244.996 423.856 244.756 424.432 244.276 424.912C243.812 425.376 243.236 425.608 242.548 425.608ZM253.968 430V428.824H256.224V416.128H253.968V414.952H259.896V416.128H257.736V428.824H259.944V430H253.968ZM261.899 418.456H263.147L263.243 419.2C264.011 418.848 264.651 418.608 265.163 418.48C265.675 418.352 266.227 418.288 266.819 418.288C268.019 418.288 268.899 418.608 269.459 419.248C270.019 419.888 270.299 420.88 270.299 422.224V430H268.811V422.176C268.811 421.232 268.659 420.552 268.355 420.136C268.051 419.72 267.515 419.512 266.747 419.512C266.187 419.512 265.643 419.568 265.115 419.68C264.603 419.792 264.035 420.024 263.411 420.376V430H261.899V418.456ZM276.381 430.12C275.565 430.104 274.933 429.928 274.485 429.592C274.037 429.256 273.725 428.76 273.549 428.104C273.389 427.448 273.309 426.568 273.309 425.464V419.512H271.509V418.456H273.357L273.645 415.144H274.821V418.456H278.421V419.512H274.821V425.488C274.821 426.48 274.893 427.216 275.037 427.696C275.197 428.176 275.405 428.496 275.661 428.656C275.933 428.8 276.309 428.872 276.789 428.872C277.653 428.872 278.237 428.848 278.541 428.8L278.613 430C277.989 430.08 277.245 430.12 276.381 430.12ZM284.837 430.12C281.525 430.12 279.869 428.144 279.869 424.192C279.869 422.224 280.293 420.752 281.141 419.776C281.989 418.784 283.125 418.288 284.549 418.288C285.829 418.288 286.837 418.712 287.573 419.56C288.325 420.392 288.701 421.512 288.701 422.92L288.653 424L288.605 424.504H281.357C281.373 426.152 281.693 427.296 282.317 427.936C282.941 428.56 283.749 428.872 284.741 428.872C285.349 428.872 285.917 428.8 286.445 428.656C286.973 428.512 287.501 428.272 288.029 427.936L288.485 429.112C287.941 429.448 287.341 429.704 286.685 429.88C286.045 430.04 285.429 430.12 284.837 430.12ZM287.309 423.448V422.872C287.309 421.848 287.061 421.032 286.565 420.424C286.069 419.816 285.397 419.512 284.549 419.512C283.573 419.512 282.821 419.856 282.293 420.544C281.765 421.232 281.453 422.2 281.357 423.448H287.309ZM289.749 430V428.944H292.365V415.144H289.773V414.088H293.877V428.944H296.349V430H289.749ZM300.358 416.224C300.054 416.224 299.798 416.136 299.59 415.96C299.382 415.768 299.278 415.512 299.278 415.192C299.278 414.872 299.382 414.616 299.59 414.424C299.798 414.216 300.054 414.112 300.358 414.112C300.662 414.112 300.91 414.208 301.102 414.4C301.31 414.576 301.414 414.832 301.414 415.168C301.414 415.504 301.31 415.768 301.102 415.96C300.91 416.136 300.662 416.224 300.358 416.224ZM297.358 430V428.944H299.59V419.512H297.358V418.456H301.102V428.944H303.358V430H297.358ZM308.998 433.984C307.27 433.984 306.062 433.68 305.374 433.072C304.702 432.48 304.366 431.816 304.366 431.08C304.366 430.648 304.51 430.216 304.798 429.784C305.086 429.336 305.374 429.032 305.662 428.872C305.406 428.696 305.198 428.456 305.038 428.152C304.894 427.832 304.822 427.52 304.822 427.216C304.822 426.8 304.91 426.416 305.086 426.064C305.262 425.696 305.574 425.192 306.022 424.552C305.158 423.8 304.726 422.928 304.726 421.936C304.726 420.704 305.15 419.792 305.998 419.2C306.846 418.592 307.942 418.288 309.286 418.288C309.654 418.288 310.078 418.336 310.558 418.432C310.638 418.448 310.782 418.472 310.99 418.504C311.214 418.536 311.438 418.552 311.662 418.552H315.022V419.656H312.43C312.83 419.96 313.134 420.336 313.342 420.784C313.566 421.232 313.678 421.672 313.678 422.104C313.678 423.16 313.278 424.008 312.478 424.648C311.694 425.272 310.654 425.584 309.358 425.584C308.446 425.584 307.638 425.44 306.934 425.152C306.422 425.952 306.166 426.576 306.166 427.024C306.166 427.216 306.19 427.392 306.238 427.552C306.302 427.696 306.358 427.816 306.406 427.912C306.47 427.992 306.51 428.04 306.526 428.056H310.966C312.198 428.056 313.054 428.256 313.534 428.656C314.03 429.04 314.278 429.648 314.278 430.48C314.278 431.04 314.11 431.584 313.774 432.112C313.454 432.64 312.902 433.08 312.118 433.432C311.334 433.8 310.294 433.984 308.998 433.984ZM309.238 424.432C310.246 424.432 311.006 424.232 311.518 423.832C312.046 423.432 312.31 422.84 312.31 422.056C312.31 421.288 312.062 420.656 311.566 420.16C311.07 419.648 310.334 419.392 309.358 419.392C308.27 419.392 307.478 419.624 306.982 420.088C306.486 420.552 306.238 421.168 306.238 421.936C306.238 422.736 306.502 423.352 307.03 423.784C307.558 424.216 308.294 424.432 309.238 424.432ZM309.07 432.76C310.334 432.76 311.286 432.544 311.926 432.112C312.566 431.68 312.886 431.168 312.886 430.576C312.886 430.128 312.766 429.792 312.526 429.568C312.302 429.344 311.846 429.232 311.158 429.232H306.718C306.142 429.776 305.854 430.344 305.854 430.936C305.854 431.272 305.918 431.568 306.046 431.824C306.174 432.08 306.47 432.296 306.934 432.472C307.414 432.664 308.126 432.76 309.07 432.76ZM321.051 430.12C317.739 430.12 316.083 428.144 316.083 424.192C316.083 422.224 316.507 420.752 317.355 419.776C318.203 418.784 319.339 418.288 320.763 418.288C322.043 418.288 323.051 418.712 323.787 419.56C324.539 420.392 324.915 421.512 324.915 422.92L324.867 424L324.819 424.504H317.571C317.587 426.152 317.907 427.296 318.531 427.936C319.155 428.56 319.963 428.872 320.955 428.872C321.563 428.872 322.131 428.8 322.659 428.656C323.187 428.512 323.715 428.272 324.243 427.936L324.699 429.112C324.155 429.448 323.555 429.704 322.899 429.88C322.259 430.04 321.643 430.12 321.051 430.12ZM323.523 423.448V422.872C323.523 421.848 323.275 421.032 322.779 420.424C322.283 419.816 321.611 419.512 320.763 419.512C319.787 419.512 319.035 419.856 318.507 420.544C317.979 421.232 317.667 422.2 317.571 423.448H323.523ZM326.78 418.456H328.028L328.124 419.2C328.892 418.848 329.532 418.608 330.044 418.48C330.556 418.352 331.108 418.288 331.7 418.288C332.9 418.288 333.78 418.608 334.34 419.248C334.9 419.888 335.18 420.88 335.18 422.224V430H333.692V422.176C333.692 421.232 333.54 420.552 333.236 420.136C332.932 419.72 332.396 419.512 331.628 419.512C331.068 419.512 330.524 419.568 329.996 419.68C329.484 419.792 328.916 420.024 328.292 420.376V430H326.78V418.456ZM341.695 430.12C340.799 430.12 339.999 429.896 339.295 429.448C338.591 429 338.031 428.336 337.615 427.456C337.215 426.56 337.015 425.472 337.015 424.192C337.015 420.256 338.527 418.288 341.551 418.288C342.639 418.288 343.671 418.52 344.647 418.984V422.008L343.447 422.128V419.776C342.967 419.584 342.327 419.488 341.527 419.488C340.423 419.488 339.639 419.896 339.175 420.712C338.727 421.528 338.503 422.696 338.503 424.216C338.503 425.704 338.799 426.856 339.391 427.672C339.999 428.488 340.815 428.896 341.839 428.896C342.767 428.896 343.663 428.6 344.527 428.008L345.103 429.064C344.575 429.448 344.031 429.72 343.471 429.88C342.927 430.04 342.335 430.12 341.695 430.12ZM349.3 416.224C348.996 416.224 348.74 416.136 348.532 415.96C348.324 415.768 348.22 415.512 348.22 415.192C348.22 414.872 348.324 414.616 348.532 414.424C348.74 414.216 348.996 414.112 349.3 414.112C349.604 414.112 349.852 414.208 350.044 414.4C350.252 414.576 350.356 414.832 350.356 415.168C350.356 415.504 350.252 415.768 350.044 415.96C349.852 416.136 349.604 416.224 349.3 416.224ZM346.3 430V428.944H348.532V419.512H346.3V418.456H350.044V428.944H352.3V430H346.3ZM356.909 430.12C355.789 430.12 354.885 429.84 354.197 429.28C353.525 428.72 353.189 427.912 353.189 426.856C353.189 425.832 353.637 424.992 354.533 424.336C355.429 423.68 356.893 423.352 358.925 423.352H359.933V422.992C359.933 421.712 359.709 420.816 359.261 420.304C358.829 419.776 358.213 419.512 357.413 419.512C356.981 419.512 356.549 419.56 356.117 419.656C355.685 419.736 355.029 419.888 354.149 420.112L353.861 418.96C355.205 418.512 356.405 418.288 357.461 418.288C358.677 418.288 359.637 418.648 360.341 419.368C361.061 420.072 361.421 421.208 361.421 422.776V430H360.341L360.101 429.232C359.813 429.456 359.357 429.664 358.733 429.856C358.109 430.032 357.501 430.12 356.909 430.12ZM357.125 428.92C357.621 428.92 358.133 428.848 358.661 428.704C359.189 428.544 359.613 428.36 359.933 428.152V424.456H359.285C357.957 424.456 356.845 424.608 355.949 424.912C355.053 425.216 354.605 425.824 354.605 426.736C354.605 427.456 354.821 428 355.253 428.368C355.685 428.736 356.309 428.92 357.125 428.92ZM373.179 425.608C372.507 425.608 371.931 425.376 371.451 424.912C370.987 424.432 370.755 423.856 370.755 423.184C370.755 422.512 370.987 421.936 371.451 421.456C371.931 420.976 372.507 420.736 373.179 420.736C373.867 420.736 374.443 420.976 374.907 421.456C375.387 421.936 375.627 422.512 375.627 423.184C375.627 423.856 375.387 424.432 374.907 424.912C374.443 425.376 373.867 425.608 373.179 425.608ZM389.543 430.12C386.231 430.12 384.575 428.144 384.575 424.192C384.575 422.224 384.999 420.752 385.847 419.776C386.695 418.784 387.831 418.288 389.255 418.288C390.535 418.288 391.543 418.712 392.279 419.56C393.031 420.392 393.407 421.512 393.407 422.92L393.359 424L393.311 424.504H386.063C386.079 426.152 386.399 427.296 387.023 427.936C387.647 428.56 388.455 428.872 389.447 428.872C390.055 428.872 390.623 428.8 391.151 428.656C391.679 428.512 392.207 428.272 392.735 427.936L393.191 429.112C392.647 429.448 392.047 429.704 391.391 429.88C390.751 430.04 390.135 430.12 389.543 430.12ZM392.015 423.448V422.872C392.015 421.848 391.767 421.032 391.271 420.424C390.775 419.816 390.103 419.512 389.255 419.512C388.279 419.512 387.527 419.856 386.999 420.544C386.471 421.232 386.159 422.2 386.063 423.448H392.015ZM395.272 418.456H396.664L396.712 419.2C397.8 418.592 398.96 418.288 400.192 418.288C401.408 418.288 402.232 418.608 402.664 419.248C403.864 418.608 405.072 418.288 406.288 418.288C407.392 418.288 408.24 418.608 408.832 419.248C409.424 419.888 409.72 420.848 409.72 422.128V430H408.232V422.128C408.232 420.384 407.6 419.512 406.336 419.512C405.056 419.512 404.016 419.768 403.216 420.28C403.248 420.44 403.28 420.728 403.312 421.144C403.344 421.544 403.36 421.904 403.36 422.224V430H401.848V422.176C401.848 421.232 401.712 420.552 401.44 420.136C401.168 419.72 400.688 419.504 400 419.488H399.976C399.56 419.488 399.056 419.56 398.464 419.704C397.888 419.848 397.328 420.064 396.784 420.352V430H395.272V418.456ZM416.042 430.12C414.522 430.12 413.394 429.608 412.658 428.584C411.922 427.544 411.554 426.08 411.554 424.192C411.554 422.224 411.914 420.752 412.634 419.776C413.354 418.784 414.49 418.288 416.042 418.288C417.594 418.288 418.73 418.784 419.45 419.776C420.186 420.752 420.554 422.224 420.554 424.192C420.554 426.08 420.186 427.544 419.45 428.584C418.714 429.608 417.578 430.12 416.042 430.12ZM416.042 428.872C417.146 428.872 417.922 428.472 418.37 427.672C418.818 426.872 419.042 425.712 419.042 424.192C419.042 422.704 418.81 421.552 418.346 420.736C417.898 419.92 417.13 419.512 416.042 419.512C414.954 419.512 414.178 419.92 413.714 420.736C413.266 421.552 413.042 422.704 413.042 424.192C413.042 425.712 413.266 426.872 413.714 427.672C414.162 428.472 414.938 428.872 416.042 428.872ZM426.805 430.12C425.909 430.12 425.109 429.896 424.405 429.448C423.701 429 423.141 428.336 422.725 427.456C422.325 426.56 422.125 425.472 422.125 424.192C422.125 420.256 423.637 418.288 426.661 418.288C427.749 418.288 428.781 418.52 429.757 418.984V422.008L428.557 422.128V419.776C428.077 419.584 427.437 419.488 426.637 419.488C425.533 419.488 424.749 419.896 424.285 420.712C423.837 421.528 423.613 422.696 423.613 424.216C423.613 425.704 423.909 426.856 424.501 427.672C425.109 428.488 425.925 428.896 426.949 428.896C427.877 428.896 428.773 428.6 429.637 428.008L430.213 429.064C429.685 429.448 429.141 429.72 428.581 429.88C428.037 430.04 427.445 430.12 426.805 430.12ZM434.41 416.224C434.106 416.224 433.85 416.136 433.642 415.96C433.434 415.768 433.33 415.512 433.33 415.192C433.33 414.872 433.434 414.616 433.642 414.424C433.85 414.216 434.106 414.112 434.41 414.112C434.714 414.112 434.962 414.208 435.154 414.4C435.362 414.576 435.466 414.832 435.466 415.168C435.466 415.504 435.362 415.768 435.154 415.96C434.962 416.136 434.714 416.224 434.41 416.224ZM431.41 430V428.944H433.642V419.512H431.41V418.456H435.154V428.944H437.41V430H431.41ZM442.787 430.12C441.267 430.12 440.139 429.608 439.403 428.584C438.667 427.544 438.299 426.08 438.299 424.192C438.299 422.224 438.659 420.752 439.379 419.776C440.099 418.784 441.235 418.288 442.787 418.288C444.339 418.288 445.475 418.784 446.195 419.776C446.931 420.752 447.299 422.224 447.299 424.192C447.299 426.08 446.931 427.544 446.195 428.584C445.459 429.608 444.323 430.12 442.787 430.12ZM442.787 428.872C443.891 428.872 444.667 428.472 445.115 427.672C445.563 426.872 445.787 425.712 445.787 424.192C445.787 422.704 445.555 421.552 445.091 420.736C444.643 419.92 443.875 419.512 442.787 419.512C441.699 419.512 440.923 419.92 440.459 420.736C440.011 421.552 439.787 422.704 439.787 424.192C439.787 425.712 440.011 426.872 440.459 427.672C440.907 428.472 441.683 428.872 442.787 428.872ZM449.23 418.456H450.478L450.574 419.2C451.342 418.848 451.982 418.608 452.494 418.48C453.006 418.352 453.558 418.288 454.15 418.288C455.35 418.288 456.23 418.608 456.79 419.248C457.35 419.888 457.63 420.88 457.63 422.224V430H456.142V422.176C456.142 421.232 455.99 420.552 455.686 420.136C455.382 419.72 454.846 419.512 454.078 419.512C453.518 419.512 452.974 419.568 452.446 419.68C451.934 419.792 451.366 420.024 450.742 420.376V430H449.23V418.456ZM463.185 430.12C462.065 430.12 461.161 429.84 460.473 429.28C459.801 428.72 459.465 427.912 459.465 426.856C459.465 425.832 459.913 424.992 460.809 424.336C461.705 423.68 463.169 423.352 465.201 423.352H466.209V422.992C466.209 421.712 465.985 420.816 465.537 420.304C465.105 419.776 464.489 419.512 463.689 419.512C463.257 419.512 462.825 419.56 462.393 419.656C461.961 419.736 461.305 419.888 460.425 420.112L460.137 418.96C461.481 418.512 462.681 418.288 463.737 418.288C464.953 418.288 465.913 418.648 466.617 419.368C467.337 420.072 467.697 421.208 467.697 422.776V430H466.617L466.377 429.232C466.089 429.456 465.633 429.664 465.009 429.856C464.385 430.032 463.777 430.12 463.185 430.12ZM463.401 428.92C463.897 428.92 464.409 428.848 464.937 428.704C465.465 428.544 465.889 428.36 466.209 428.152V424.456H465.561C464.233 424.456 463.121 424.608 462.225 424.912C461.329 425.216 460.881 425.824 460.881 426.736C460.881 427.456 461.097 428 461.529 428.368C461.961 428.736 462.585 428.92 463.401 428.92ZM469.205 430V428.944H471.821V415.144H469.229V414.088H473.333V428.944H475.805V430H469.205Z" fill="white"/>
</g>
<defs>
<filter id="filter0_ddd_2_15" x="0" y="0" width="629" height="462" filterUnits="userSpaceOnUse" color-interpolation-filters="sRGB">
<feFlood flood-opacity="0" result="BackgroundImageFix"/>
<feColorMatrix in="SourceAlpha" type="matrix" values="0 0 0 0 0 0 0 0 0 0 0 0 0 0 0 0 0 0 127 0" result="hardAlpha"/>
<feOffset dy="4"/>
<feGaussianBlur stdDeviation="2"/>
<feComposite in2="hardAlpha" operator="out"/>
<feColorMatrix type="matrix" values="0 0 0 0 0 0 0 0 0 0 0 0 0 0 0 0 0 0 0.25 0"/>
<feBlend mode="normal" in2="BackgroundImageFix" result="effect1_dropShadow_2_15"/>
<feColorMatrix in="SourceAlpha" type="matrix" values="0 0 0 0 0 0 0 0 0 0 0 0 0 0 0 0 0 0 127 0" result="hardAlpha"/>
<feOffset dy="4"/>
<feGaussianBlur stdDeviation="2"/>
<feComposite in2="hardAlpha" operator="out"/>
<feColorMatrix type="matrix" values="0 0 0 0 0 0 0 0 0 0 0 0 0 0 0 0 0 0 0.25 0"/>
<feBlend mode="normal" in2="effect1_dropShadow_2_15" result="effect2_dropShadow_2_15"/>
<feColorMatrix in="SourceAlpha" type="matrix" values="0 0 0 0 0 0 0 0 0 0 0 0 0 0 0 0 0 0 127 0" result="hardAlpha"/>
<feOffset dy="4"/>
<feGaussianBlur stdDeviation="2"/>
<feComposite in2="hardAlpha" operator="out"/>
<feColorMatrix type="matrix" values="0 0 0 0 0 0 0 0 0 0 0 0 0 0 0 0 0 0 0.25 0"/>
<feBlend mode="normal" in2="effect2_dropShadow_2_15" result="effect3_dropShadow_2_15"/>
<feBlend mode="normal" in="SourceGraphic" in2="effect3_dropShadow_2_15" result="shape"/>
</filter>
<clipPath id="clip0_2_15">
<rect width="621" height="454" fill="white" transform="translate(4)"/>
</clipPath>
</defs>
</svg>
