<svg width="594" height="139" viewBox="0 0 594 139" fill="none" xmlns="http://www.w3.org/2000/svg">
<g filter="url(#filter0_ddd_87_2)">
<path d="M4.5 125L29.5 0H590L567.5 125H4.5Z" fill="#D9D9D9"/>
</g>
<g filter="url(#filter1_dd_87_2)">
<path d="M80.8438 16.9375H111.453V26.5H92.9844V50.4531H107.469V60.0156H92.9844V97H80.8438V16.9375ZM122.919 97.7031C120.919 97.7031 119.138 97.3125 117.575 96.5312C116.044 95.7188 114.747 94.625 113.684 93.25C112.622 91.875 111.809 90.25 111.247 88.375C110.716 86.4688 110.45 84.4062 110.45 82.1875C110.45 79.5312 110.778 77.1719 111.434 75.1094C112.091 73.0469 113.044 71.1875 114.294 69.5312C115.575 67.875 117.153 66.375 119.028 65.0312C120.903 63.6562 123.075 62.3594 125.544 61.1406C126.731 60.5469 128.059 59.9531 129.528 59.3594C131.028 58.7344 132.356 58.2031 133.513 57.7656V49.2344C133.513 47.9844 133.466 46.8281 133.372 45.7656C133.278 44.6719 133.044 43.7344 132.669 42.9531C132.325 42.1406 131.794 41.5156 131.075 41.0781C130.356 40.6094 129.372 40.375 128.122 40.375C127.278 40.375 126.45 40.5312 125.638 40.8438C124.856 41.1562 124.153 41.6875 123.528 42.4375C122.934 43.1875 122.45 44.1875 122.075 45.4375C121.731 46.6875 121.559 48.2344 121.559 50.0781V52.8906H112.513C112.231 51.6719 112.013 50.5625 111.856 49.5625C111.731 48.5312 111.669 47.5156 111.669 46.5156C111.669 44.1094 112.075 41.9844 112.888 40.1406C113.731 38.2969 114.888 36.75 116.356 35.5C117.856 34.25 119.638 33.3125 121.7 32.6875C123.763 32.0312 126.028 31.7031 128.497 31.7031C131.716 31.7031 134.388 32.0625 136.513 32.7812C138.638 33.4688 140.325 34.5156 141.575 35.9219C142.856 37.3281 143.747 39.0938 144.247 41.2188C144.778 43.3438 145.044 45.8281 145.044 48.6719V97H136.231L135.388 91.4688C134.106 93.3125 132.388 94.8125 130.231 95.9688C128.106 97.125 125.669 97.7031 122.919 97.7031ZM128.169 88.5625C129.169 88.5625 130.138 88.3125 131.075 87.8125C132.044 87.2812 132.856 86.6406 133.513 85.8906V65.6875C132.888 65.9375 132.184 66.2344 131.403 66.5781C130.622 66.9219 129.778 67.375 128.872 67.9375C128.028 68.4688 127.2 69.1094 126.388 69.8594C125.575 70.6094 124.841 71.5 124.184 72.5312C123.559 73.5625 123.044 74.7344 122.638 76.0469C122.263 77.3281 122.075 78.7656 122.075 80.3594C122.075 82.8281 122.559 84.8125 123.528 86.3125C124.497 87.8125 126.044 88.5625 128.169 88.5625ZM152.713 11.7344H164.572V97H152.713V11.7344ZM187.756 97.7031C184.975 97.7031 182.506 97.1875 180.35 96.1562C178.225 95.125 176.428 93.5156 174.959 91.3281C173.491 89.1406 172.381 86.3438 171.631 82.9375C170.881 79.5 170.506 75.375 170.506 70.5625V58.375C170.506 54.2812 170.803 50.7812 171.397 47.875C172.022 44.9375 172.819 42.4844 173.787 40.5156C174.787 38.5156 175.928 36.9375 177.209 35.7812C178.522 34.625 179.866 33.75 181.241 33.1562C182.616 32.5312 183.975 32.1406 185.319 31.9844C186.694 31.7969 187.959 31.7031 189.116 31.7031C191.241 31.7031 193.287 32.0312 195.256 32.6875C197.225 33.3125 198.959 34.4062 200.459 35.9688C201.959 37.5 203.147 39.5625 204.022 42.1562C204.928 44.75 205.381 47.9844 205.381 51.8594C205.381 53.1719 205.334 54.5 205.241 55.8438C205.178 57.1875 205.084 58.5156 204.959 59.8281C204.834 61.1094 204.662 62.3594 204.444 63.5781C204.256 64.7969 204.053 65.9219 203.834 66.9531H182.412V73.5156C182.412 76.3281 182.522 78.7031 182.741 80.6406C182.959 82.5469 183.319 84.0938 183.819 85.2812C184.35 86.4375 185.053 87.2812 185.928 87.8125C186.834 88.3125 187.959 88.5625 189.303 88.5625C190.022 88.5625 190.725 88.4219 191.412 88.1406C192.1 87.8281 192.694 87.3281 193.194 86.6406C193.725 85.9531 194.147 85.0469 194.459 83.9219C194.772 82.7656 194.928 81.3438 194.928 79.6562V77.6406H204.819V80.125C204.819 86.25 203.35 90.7188 200.412 93.5312C197.506 96.3125 193.287 97.7031 187.756 97.7031ZM194.319 58.9844C194.35 58.6406 194.381 58.1875 194.412 57.625C194.444 57.0312 194.459 56.4219 194.459 55.7969C194.491 55.1719 194.506 54.5625 194.506 53.9688C194.506 53.3438 194.506 52.8125 194.506 52.375C194.506 48.125 194.006 45.0625 193.006 43.1875C192.006 41.3125 190.522 40.375 188.553 40.375C187.522 40.375 186.616 40.625 185.834 41.125C185.053 41.5938 184.412 42.4062 183.912 43.5625C183.412 44.6875 183.037 46.1875 182.787 48.0625C182.537 49.9375 182.412 52.2656 182.412 55.0469V58.9844H194.319ZM241.391 97.7031C235.953 97.7031 231.797 95.4688 228.922 91C226.078 86.5312 224.656 79.7188 224.656 70.5625V58.375C224.656 54.2812 224.953 50.7812 225.547 47.875C226.141 44.9375 226.922 42.4844 227.891 40.5156C228.891 38.5156 230.016 36.9375 231.266 35.7812C232.547 34.625 233.859 33.75 235.203 33.1562C236.547 32.5312 237.875 32.1406 239.188 31.9844C240.5 31.7969 241.703 31.7031 242.797 31.7031C244.984 31.7031 246.984 32 248.797 32.5938C250.609 33.1562 252.172 34.0312 253.484 35.2188C254.797 36.375 255.812 37.8438 256.531 39.625C257.25 41.4062 257.609 43.5 257.609 45.9062C257.609 47.4062 257.531 48.7031 257.375 49.7969C257.25 50.8594 257.062 51.8906 256.812 52.8906H247.344V50.7344C247.344 47.4844 246.953 44.9531 246.172 43.1406C245.422 41.2969 244.172 40.375 242.422 40.375C241.453 40.375 240.609 40.6094 239.891 41.0781C239.172 41.5156 238.562 42.2812 238.062 43.375C237.594 44.4688 237.234 45.9375 236.984 47.7812C236.766 49.625 236.656 51.9375 236.656 54.7188V73.0469C236.656 75.8594 236.75 78.25 236.938 80.2188C237.125 82.1875 237.453 83.7969 237.922 85.0469C238.391 86.2656 239.016 87.1562 239.797 87.7188C240.578 88.2812 241.547 88.5625 242.703 88.5625C243.297 88.5625 243.875 88.4219 244.438 88.1406C245 87.8281 245.484 87.3281 245.891 86.6406C246.328 85.9531 246.672 85.0469 246.922 83.9219C247.203 82.7656 247.344 81.3438 247.344 79.6562V77.6406H257.562V80.125C257.562 86.25 256.203 90.7188 253.484 93.5312C250.797 96.3125 246.766 97.7031 241.391 97.7031ZM278.684 97.7031C277.309 97.7031 275.903 97.5938 274.466 97.375C273.059 97.1562 271.684 96.7031 270.341 96.0156C269.028 95.3281 267.778 94.3438 266.591 93.0625C265.434 91.7812 264.419 90.0938 263.544 88C262.669 85.9062 261.981 83.3281 261.481 80.2656C260.981 77.2031 260.731 73.5469 260.731 69.2969V59.1719C260.731 54.9844 260.981 51.4062 261.481 48.4375C262.012 45.4375 262.716 42.9219 263.591 40.8906C264.497 38.8594 265.544 37.25 266.731 36.0625C267.919 34.8438 269.169 33.9219 270.481 33.2969C271.825 32.6406 273.2 32.2188 274.606 32.0312C276.012 31.8125 277.387 31.7031 278.731 31.7031C280.012 31.7031 281.341 31.7969 282.716 31.9844C284.091 32.1719 285.434 32.5781 286.747 33.2031C288.059 33.7969 289.294 34.7031 290.45 35.9219C291.637 37.1094 292.669 38.7188 293.544 40.75C294.45 42.7812 295.153 45.3125 295.653 48.3438C296.184 51.3438 296.45 54.9531 296.45 59.1719V69.2969C296.45 73.4844 296.184 77.0938 295.653 80.125C295.122 83.1562 294.403 85.7188 293.497 87.8125C292.591 89.9062 291.544 91.6094 290.356 92.9219C289.169 94.2031 287.919 95.2031 286.606 95.9219C285.294 96.6406 283.95 97.1094 282.575 97.3281C281.231 97.5781 279.934 97.7031 278.684 97.7031ZM278.778 88.5625C279.841 88.5625 280.731 88.2969 281.45 87.7656C282.2 87.2031 282.794 86.2969 283.231 85.0469C283.7 83.7969 284.028 82.1562 284.216 80.125C284.434 78.0625 284.544 75.5156 284.544 72.4844V56.5938C284.544 53.5625 284.434 51.0156 284.216 48.9531C284.028 46.8906 283.7 45.2344 283.231 43.9844C282.794 42.7031 282.2 41.7812 281.45 41.2188C280.731 40.6562 279.841 40.375 278.778 40.375C277.653 40.375 276.7 40.6562 275.919 41.2188C275.169 41.7812 274.544 42.7031 274.044 43.9844C273.544 45.2344 273.184 46.8906 272.966 48.9531C272.747 51.0156 272.637 53.5625 272.637 56.5938V72.4844C272.637 75.5156 272.747 78.0625 272.966 80.125C273.184 82.1562 273.544 83.7969 274.044 85.0469C274.544 86.2969 275.169 87.2031 275.919 87.7656C276.7 88.2969 277.653 88.5625 278.778 88.5625ZM302.15 32.4531H311.337L312.369 39.3438V39.3906C313.306 37.9219 314.306 36.7031 315.369 35.7344C316.431 34.7344 317.525 33.9375 318.65 33.3438C319.806 32.75 320.978 32.3281 322.166 32.0781C323.384 31.8281 324.587 31.7031 325.775 31.7031C328.306 31.7031 330.447 32.3125 332.197 33.5312C333.947 34.75 335.275 36.5781 336.181 39.0156C337.119 37.6094 338.103 36.4375 339.134 35.5C340.197 34.5625 341.291 33.8125 342.416 33.25C343.541 32.6875 344.681 32.2969 345.837 32.0781C346.994 31.8281 348.166 31.7031 349.353 31.7031C353.103 31.7031 355.994 33.0312 358.025 35.6875C360.087 38.3125 361.119 42.2656 361.119 47.5469V97H349.259V47.9688C349.259 46.5625 349.15 45.375 348.931 44.4062C348.712 43.4375 348.384 42.6562 347.947 42.0625C347.509 41.4688 346.947 41.0469 346.259 40.7969C345.572 40.5156 344.744 40.375 343.775 40.375C342.681 40.375 341.587 40.7812 340.494 41.5938C339.4 42.375 338.4 43.4688 337.494 44.875C337.525 45.1562 337.541 45.4375 337.541 45.7188C337.541 46 337.541 46.2812 337.541 46.5625V97H325.681V47.9688C325.681 46.5625 325.572 45.375 325.353 44.4062C325.134 43.4375 324.806 42.6562 324.369 42.0625C323.931 41.4688 323.369 41.0469 322.681 40.7969C321.994 40.5156 321.166 40.375 320.197 40.375C319.134 40.375 318.056 40.7656 316.962 41.5469C315.869 42.3281 314.884 43.4062 314.009 44.7812V97H302.15V32.4531ZM374.928 23.2188C372.741 23.2188 371.006 22.5625 369.725 21.25C368.475 19.9375 367.85 18.0156 367.85 15.4844C367.85 14.0781 368.006 12.9062 368.319 11.9688C368.663 11 369.131 10.2344 369.725 9.67188C370.35 9.07812 371.1 8.65625 371.975 8.40625C372.85 8.125 373.85 7.98438 374.975 7.98438C377.319 7.98438 379.1 8.57813 380.319 9.76562C381.538 10.9531 382.147 12.8594 382.147 15.4844C382.147 17.9219 381.522 19.8281 380.272 21.2031C379.053 22.5469 377.272 23.2188 374.928 23.2188ZM368.788 32.4531H380.647V97H368.788V32.4531ZM397.925 101.406C397.925 104.188 398.441 106.156 399.472 107.312C400.503 108.469 402.097 109.047 404.253 109.047C405.128 109.047 405.972 108.906 406.784 108.625C407.597 108.375 408.3 107.891 408.894 107.172C409.519 106.484 410.019 105.516 410.394 104.266C410.769 103.016 410.956 101.406 410.956 99.4375V89.2656C409.894 90.6406 408.519 91.8281 406.831 92.8281C405.175 93.7969 403.112 94.2812 400.644 94.2812C399.925 94.2812 399.081 94.2188 398.112 94.0938C397.144 93.9375 396.144 93.6094 395.112 93.1094C394.081 92.6094 393.066 91.8594 392.066 90.8594C391.066 89.8281 390.175 88.4531 389.394 86.7344C388.612 85.0156 387.972 82.875 387.472 80.3125C387.003 77.7188 386.769 74.5938 386.769 70.9375V53.9688C386.769 50.4688 387.003 47.5 387.472 45.0625C387.972 42.5938 388.612 40.5312 389.394 38.875C390.175 37.2188 391.066 35.9219 392.066 34.9844C393.097 34.0469 394.128 33.3438 395.159 32.875C396.222 32.375 397.253 32.0625 398.253 31.9375C399.253 31.8125 400.144 31.75 400.925 31.75C402.487 31.75 403.862 31.9531 405.05 32.3594C406.269 32.7656 407.316 33.3125 408.191 34C409.097 34.6562 409.862 35.4062 410.487 36.25C411.112 37.0938 411.644 37.9375 412.081 38.7812L413.159 32.4062H422.394V94.375C422.394 97.9688 422.05 101.203 421.362 104.078C420.675 106.984 419.597 109.453 418.128 111.484C416.659 113.547 414.784 115.125 412.503 116.219C410.253 117.312 407.55 117.859 404.394 117.859C402.269 117.859 400.269 117.672 398.394 117.297C396.519 116.922 394.878 116.25 393.472 115.281C392.066 114.344 390.956 113.047 390.144 111.391C389.331 109.766 388.925 107.688 388.925 105.156C388.925 104.719 388.972 104.172 389.066 103.516C389.159 102.859 389.316 102.156 389.534 101.406H397.925ZM404.675 85.0938C405.456 85.0938 406.144 84.9688 406.737 84.7188C407.362 84.4375 407.909 84.0781 408.378 83.6406C408.878 83.2031 409.3 82.7031 409.644 82.1406C410.019 81.5781 410.331 81 410.581 80.4062V45.1094C409.987 43.7969 409.191 42.6875 408.191 41.7812C407.222 40.8438 406.034 40.375 404.628 40.375C403.753 40.375 402.956 40.5312 402.237 40.8438C401.519 41.1562 400.894 41.75 400.362 42.625C399.831 43.4688 399.409 44.6562 399.097 46.1875C398.816 47.6875 398.675 49.6406 398.675 52.0469V73.2812C398.675 75.6875 398.816 77.6562 399.097 79.1875C399.409 80.7188 399.831 81.9219 400.362 82.7969C400.894 83.6719 401.519 84.2812 402.237 84.625C402.987 84.9375 403.8 85.0938 404.675 85.0938ZM446.328 97.7031C444.953 97.7031 443.547 97.5938 442.109 97.375C440.703 97.1562 439.328 96.7031 437.984 96.0156C436.672 95.3281 435.422 94.3438 434.234 93.0625C433.078 91.7812 432.062 90.0938 431.188 88C430.312 85.9062 429.625 83.3281 429.125 80.2656C428.625 77.2031 428.375 73.5469 428.375 69.2969V59.1719C428.375 54.9844 428.625 51.4062 429.125 48.4375C429.656 45.4375 430.359 42.9219 431.234 40.8906C432.141 38.8594 433.188 37.25 434.375 36.0625C435.562 34.8438 436.812 33.9219 438.125 33.2969C439.469 32.6406 440.844 32.2188 442.25 32.0312C443.656 31.8125 445.031 31.7031 446.375 31.7031C447.656 31.7031 448.984 31.7969 450.359 31.9844C451.734 32.1719 453.078 32.5781 454.391 33.2031C455.703 33.7969 456.938 34.7031 458.094 35.9219C459.281 37.1094 460.312 38.7188 461.188 40.75C462.094 42.7812 462.797 45.3125 463.297 48.3438C463.828 51.3438 464.094 54.9531 464.094 59.1719V69.2969C464.094 73.4844 463.828 77.0938 463.297 80.125C462.766 83.1562 462.047 85.7188 461.141 87.8125C460.234 89.9062 459.188 91.6094 458 92.9219C456.812 94.2031 455.562 95.2031 454.25 95.9219C452.938 96.6406 451.594 97.1094 450.219 97.3281C448.875 97.5781 447.578 97.7031 446.328 97.7031ZM446.422 88.5625C447.484 88.5625 448.375 88.2969 449.094 87.7656C449.844 87.2031 450.438 86.2969 450.875 85.0469C451.344 83.7969 451.672 82.1562 451.859 80.125C452.078 78.0625 452.188 75.5156 452.188 72.4844V56.5938C452.188 53.5625 452.078 51.0156 451.859 48.9531C451.672 46.8906 451.344 45.2344 450.875 43.9844C450.438 42.7031 449.844 41.7812 449.094 41.2188C448.375 40.6562 447.484 40.375 446.422 40.375C445.297 40.375 444.344 40.6562 443.562 41.2188C442.812 41.7812 442.188 42.7031 441.688 43.9844C441.188 45.2344 440.828 46.8906 440.609 48.9531C440.391 51.0156 440.281 53.5625 440.281 56.5938V72.4844C440.281 75.5156 440.391 78.0625 440.609 80.125C440.828 82.1562 441.188 83.7969 441.688 85.0469C442.188 86.2969 442.812 87.2031 443.562 87.7656C444.344 88.2969 445.297 88.5625 446.422 88.5625ZM489.181 12.0156H501.978L500.525 70.9844H490.822L489.181 12.0156ZM488.384 88.7031C488.384 85.4219 489.041 83.0781 490.353 81.6719C491.666 80.2344 493.447 79.5156 495.697 79.5156C498.041 79.5156 499.853 80.2656 501.134 81.7656C502.416 83.2656 503.056 85.5781 503.056 88.7031C503.056 91.5469 502.4 93.75 501.087 95.3125C499.806 96.875 497.994 97.6562 495.65 97.6562C493.431 97.6562 491.666 96.9062 490.353 95.4062C489.041 93.875 488.384 91.6406 488.384 88.7031Z" fill="#C70000"/>
</g>
<defs>
<filter id="filter0_ddd_87_2" x="0.5" y="0" width="593.5" height="133" filterUnits="userSpaceOnUse" color-interpolation-filters="sRGB">
<feFlood flood-opacity="0" result="BackgroundImageFix"/>
<feColorMatrix in="SourceAlpha" type="matrix" values="0 0 0 0 0 0 0 0 0 0 0 0 0 0 0 0 0 0 127 0" result="hardAlpha"/>
<feOffset dy="4"/>
<feGaussianBlur stdDeviation="2"/>
<feComposite in2="hardAlpha" operator="out"/>
<feColorMatrix type="matrix" values="0 0 0 0 0 0 0 0 0 0 0 0 0 0 0 0 0 0 0.25 0"/>
<feBlend mode="normal" in2="BackgroundImageFix" result="effect1_dropShadow_87_2"/>
<feColorMatrix in="SourceAlpha" type="matrix" values="0 0 0 0 0 0 0 0 0 0 0 0 0 0 0 0 0 0 127 0" result="hardAlpha"/>
<feOffset dy="4"/>
<feGaussianBlur stdDeviation="2"/>
<feComposite in2="hardAlpha" operator="out"/>
<feColorMatrix type="matrix" values="0 0 0 0 0 0 0 0 0 0 0 0 0 0 0 0 0 0 0.25 0"/>
<feBlend mode="normal" in2="effect1_dropShadow_87_2" result="effect2_dropShadow_87_2"/>
<feColorMatrix in="SourceAlpha" type="matrix" values="0 0 0 0 0 0 0 0 0 0 0 0 0 0 0 0 0 0 127 0" result="hardAlpha"/>
<feOffset dy="4"/>
<feGaussianBlur stdDeviation="2"/>
<feComposite in2="hardAlpha" operator="out"/>
<feColorMatrix type="matrix" values="0 0 0 0 0 0 0 0 0 0 0 0 0 0 0 0 0 0 0.25 0"/>
<feBlend mode="normal" in2="effect2_dropShadow_87_2" result="effect3_dropShadow_87_2"/>
<feBlend mode="normal" in="SourceGraphic" in2="effect3_dropShadow_87_2" result="shape"/>
</filter>
<filter id="filter1_dd_87_2" x="76.8438" y="7.98438" width="430.213" height="117.875" filterUnits="userSpaceOnUse" color-interpolation-filters="sRGB">
<feFlood flood-opacity="0" result="BackgroundImageFix"/>
<feColorMatrix in="SourceAlpha" type="matrix" values="0 0 0 0 0 0 0 0 0 0 0 0 0 0 0 0 0 0 127 0" result="hardAlpha"/>
<feOffset dy="4"/>
<feGaussianBlur stdDeviation="2"/>
<feComposite in2="hardAlpha" operator="out"/>
<feColorMatrix type="matrix" values="0 0 0 0 0 0 0 0 0 0 0 0 0 0 0 0 0 0 0.25 0"/>
<feBlend mode="normal" in2="BackgroundImageFix" result="effect1_dropShadow_87_2"/>
<feColorMatrix in="SourceAlpha" type="matrix" values="0 0 0 0 0 0 0 0 0 0 0 0 0 0 0 0 0 0 127 0" result="hardAlpha"/>
<feOffset dy="4"/>
<feGaussianBlur stdDeviation="2"/>
<feComposite in2="hardAlpha" operator="out"/>
<feColorMatrix type="matrix" values="0 0 0 0 0 0 0 0 0 0 0 0 0 0 0 0 0 0 0.25 0"/>
<feBlend mode="normal" in2="effect1_dropShadow_87_2" result="effect2_dropShadow_87_2"/>
<feBlend mode="normal" in="SourceGraphic" in2="effect2_dropShadow_87_2" result="shape"/>
</filter>
</defs>
</svg>
