<svg width="275" height="70" viewBox="0 0 275 70" fill="none" xmlns="http://www.w3.org/2000/svg">
<path d="M13.8564 3.93842L17.899 9.26072L26.9392 10.1194L20.3978 14.2599L21.9415 20.1094L13.8564 17.3462L5.77124 20.1094L7.31501 14.2599L0.773621 10.1194L9.81382 9.26072L13.8564 3.93842Z" fill="#FFD600"/>
<path d="M13.8564 3.93842L17.899 9.26072L26.9392 10.1194L20.3978 14.2599L21.9415 20.1094L13.8564 17.3462L5.77124 20.1094L7.31501 14.2599L0.773621 10.1194L9.81382 9.26072L13.8564 3.93842Z" fill="#FFD600"/>
<path d="M149.917 3.93842L153.96 9.26072L163 10.1194L156.459 14.2599L158.002 20.1094L149.917 17.3462L141.832 20.1094L143.376 14.2599L136.834 10.1194L145.875 9.26072L149.917 3.93842Z" fill="#FFD600"/>
<path d="M149.917 3.93842L153.96 9.26072L163 10.1194L156.459 14.2599L158.002 20.1094L149.917 17.3462L141.832 20.1094L143.376 14.2599L136.834 10.1194L145.875 9.26072L149.917 3.93842Z" fill="#FFD600"/>
<path d="M115.902 3.93842L119.945 9.26072L128.985 10.1194L122.443 14.2599L123.987 20.1094L115.902 17.3462L107.817 20.1094L109.361 14.2599L102.819 10.1194L111.859 9.26072L115.902 3.93842Z" fill="#FFD600"/>
<path d="M115.902 3.93842L119.945 9.26072L128.985 10.1194L122.443 14.2599L123.987 20.1094L115.902 17.3462L107.817 20.1094L109.361 14.2599L102.819 10.1194L111.859 9.26072L115.902 3.93842Z" fill="#FFD600"/>
<path d="M81.8868 3.93842L85.9294 9.26072L94.9696 10.1194L88.4282 14.2599L89.972 20.1094L81.8868 17.3462L73.8017 20.1094L75.3454 14.2599L68.804 10.1194L77.8442 9.26072L81.8868 3.93842Z" fill="#FFD600"/>
<path d="M81.8868 3.93842L85.9294 9.26072L94.9696 10.1194L88.4282 14.2599L89.972 20.1094L81.8868 17.3462L73.8017 20.1094L75.3454 14.2599L68.804 10.1194L77.8442 9.26072L81.8868 3.93842Z" fill="#FFD600"/>
<path d="M47.8716 3.93842L51.9142 9.26072L60.9544 10.1194L54.413 14.2599L55.9568 20.1094L47.8716 17.3462L39.7865 20.1094L41.3302 14.2599L34.7888 10.1194L43.829 9.26072L47.8716 3.93842Z" fill="#FFD600"/>
<path d="M47.8716 3.93842L51.9142 9.26072L60.9544 10.1194L54.413 14.2599L55.9568 20.1094L47.8716 17.3462L39.7865 20.1094L41.3302 14.2599L34.7888 10.1194L43.829 9.26072L47.8716 3.93842Z" fill="#FFD600"/>
<path d="M179.394 17.174H184.07V18H178.064V17.202L181.732 13.24C182.152 12.7827 182.465 12.3813 182.67 12.036C182.885 11.6907 182.992 11.3127 182.992 10.902C182.992 10.37 182.847 9.964 182.558 9.684C182.269 9.39467 181.779 9.25 181.088 9.25C180.341 9.25 179.828 9.40867 179.548 9.726C179.268 10.0433 179.128 10.5147 179.128 11.14H178.26C178.26 10.2627 178.475 9.59067 178.904 9.124C179.343 8.65733 180.071 8.424 181.088 8.424C183.011 8.424 183.972 9.25467 183.972 10.916C183.972 11.4573 183.823 11.9753 183.524 12.47C183.225 12.9553 182.81 13.4873 182.278 14.066L179.394 17.174ZM188.467 18.196C187.991 18.196 187.576 18.1447 187.221 18.042C186.866 17.9487 186.572 17.7947 186.339 17.58C186.115 17.3653 185.928 17.132 185.779 16.88C185.63 16.6187 185.518 16.2873 185.443 15.886C185.368 15.4847 185.317 15.0927 185.289 14.71C185.27 14.3273 185.261 13.8607 185.261 13.31C185.261 12.7593 185.27 12.2973 185.289 11.924C185.317 11.5413 185.368 11.1493 185.443 10.748C185.518 10.3467 185.63 10.02 185.779 9.768C185.928 9.50667 186.115 9.26867 186.339 9.054C186.572 8.83933 186.866 8.68533 187.221 8.592C187.576 8.48933 187.991 8.438 188.467 8.438C189.036 8.438 189.517 8.51733 189.909 8.676C190.31 8.83467 190.623 9.04 190.847 9.292C191.08 9.544 191.258 9.894 191.379 10.342C191.51 10.7807 191.594 11.2193 191.631 11.658C191.668 12.0967 191.687 12.6473 191.687 13.31C191.687 13.9727 191.668 14.5233 191.631 14.962C191.594 15.4007 191.51 15.844 191.379 16.292C191.258 16.74 191.08 17.09 190.847 17.342C190.623 17.594 190.31 17.7993 189.909 17.958C189.517 18.1167 189.036 18.196 188.467 18.196ZM188.467 17.37C188.859 17.37 189.19 17.3093 189.461 17.188C189.741 17.0667 189.96 16.908 190.119 16.712C190.278 16.5067 190.399 16.2267 190.483 15.872C190.576 15.508 190.637 15.1347 190.665 14.752C190.693 14.3693 190.707 13.8887 190.707 13.31C190.707 12.7313 190.693 12.2553 190.665 11.882C190.637 11.4993 190.576 11.1307 190.483 10.776C190.399 10.412 190.278 10.132 190.119 9.936C189.96 9.73067 189.741 9.56733 189.461 9.446C189.19 9.32467 188.859 9.264 188.467 9.264C188.075 9.264 187.744 9.32467 187.473 9.446C187.202 9.56733 186.983 9.73067 186.815 9.936C186.656 10.132 186.535 10.412 186.451 10.776C186.367 11.1307 186.311 11.4993 186.283 11.882C186.255 12.2553 186.241 12.7313 186.241 13.31C186.241 13.8887 186.255 14.3693 186.283 14.752C186.311 15.1347 186.367 15.508 186.451 15.872C186.535 16.2267 186.656 16.5067 186.815 16.712C186.983 16.908 187.202 17.0667 187.473 17.188C187.744 17.3093 188.075 17.37 188.467 17.37ZM195.888 18.196C195.412 18.196 194.997 18.1447 194.642 18.042C194.288 17.9487 193.994 17.7947 193.76 17.58C193.536 17.3653 193.35 17.132 193.2 16.88C193.051 16.6187 192.939 16.2873 192.864 15.886C192.79 15.4847 192.738 15.0927 192.71 14.71C192.692 14.3273 192.682 13.8607 192.682 13.31C192.682 12.7593 192.692 12.2973 192.71 11.924C192.738 11.5413 192.79 11.1493 192.864 10.748C192.939 10.3467 193.051 10.02 193.2 9.768C193.35 9.50667 193.536 9.26867 193.76 9.054C193.994 8.83933 194.288 8.68533 194.642 8.592C194.997 8.48933 195.412 8.438 195.888 8.438C196.458 8.438 196.938 8.51733 197.33 8.676C197.732 8.83467 198.044 9.04 198.268 9.292C198.502 9.544 198.679 9.894 198.8 10.342C198.931 10.7807 199.015 11.2193 199.052 11.658C199.09 12.0967 199.108 12.6473 199.108 13.31C199.108 13.9727 199.09 14.5233 199.052 14.962C199.015 15.4007 198.931 15.844 198.8 16.292C198.679 16.74 198.502 17.09 198.268 17.342C198.044 17.594 197.732 17.7993 197.33 17.958C196.938 18.1167 196.458 18.196 195.888 18.196ZM195.888 17.37C196.28 17.37 196.612 17.3093 196.882 17.188C197.162 17.0667 197.382 16.908 197.54 16.712C197.699 16.5067 197.82 16.2267 197.904 15.872C197.998 15.508 198.058 15.1347 198.086 14.752C198.114 14.3693 198.128 13.8887 198.128 13.31C198.128 12.7313 198.114 12.2553 198.086 11.882C198.058 11.4993 197.998 11.1307 197.904 10.776C197.82 10.412 197.699 10.132 197.54 9.936C197.382 9.73067 197.162 9.56733 196.882 9.446C196.612 9.32467 196.28 9.264 195.888 9.264C195.496 9.264 195.165 9.32467 194.894 9.446C194.624 9.56733 194.404 9.73067 194.236 9.936C194.078 10.132 193.956 10.412 193.872 10.776C193.788 11.1307 193.732 11.4993 193.704 11.882C193.676 12.2553 193.662 12.7313 193.662 13.31C193.662 13.8887 193.676 14.3693 193.704 14.752C193.732 15.1347 193.788 15.508 193.872 15.872C193.956 16.2267 194.078 16.5067 194.236 16.712C194.404 16.908 194.624 17.0667 194.894 17.188C195.165 17.3093 195.496 17.37 195.888 17.37ZM200.467 10.888V8.62H206.473V9.404L202.777 18H201.699L205.395 9.446H201.209V10.888H200.467Z" fill="white"/>
<rect x="215" y="6" width="19" height="15" rx="2" fill="#D9D9D9"/>
<rect x="240" y="6" width="19" height="15" rx="2" fill="#D9D9D9"/>
<path d="M222.39 18V17.45H223.05V14.315H219.222V17.45H219.882V18H217.77V17.45H218.43V10.52H217.77V9.97H219.882V10.52H219.222V13.655H223.05V10.52H222.39V9.97H224.502V10.52H223.842V17.45H224.502V18H222.39ZM226.943 9.97H228.516C228.978 9.97 229.378 10.0103 229.715 10.091C230.06 10.1643 230.346 10.289 230.573 10.465C230.801 10.641 230.984 10.8353 231.123 11.048C231.263 11.2533 231.369 11.521 231.442 11.851C231.516 12.1737 231.563 12.4963 231.585 12.819C231.615 13.1343 231.629 13.523 231.629 13.985C231.629 14.5423 231.611 15.008 231.574 15.382C231.538 15.7487 231.457 16.1117 231.332 16.471C231.215 16.8303 231.043 17.1127 230.815 17.318C230.595 17.5233 230.295 17.6883 229.913 17.813C229.532 17.9377 229.066 18 228.516 18H225.491V17.45H226.151V10.52H225.491V9.97H226.943ZM228.516 10.619H226.943V17.351H228.516C229.022 17.351 229.433 17.2777 229.748 17.131C230.071 16.9843 230.309 16.7497 230.463 16.427C230.617 16.1043 230.716 15.7633 230.76 15.404C230.812 15.0447 230.837 14.5717 230.837 13.985C230.837 13.3983 230.812 12.9253 230.76 12.566C230.716 12.2067 230.617 11.8657 230.463 11.543C230.309 11.2203 230.071 10.9857 229.748 10.839C229.433 10.6923 229.022 10.619 228.516 10.619Z" fill="#474747"/>
<path d="M247.807 18H247.026V16.35H243.352V15.712L246.575 10.63H247.807V15.701H248.731V16.35H247.807V18ZM244.221 15.701H247.026V11.279L244.221 15.701ZM253.528 18V17.45H254.089L251.966 14.26H251.053V17.45H251.713V18H249.601V17.45H250.261V10.52H249.601V9.97H251.713V10.52H251.053V13.611H252.01L254.001 10.52H253.418V9.97H255.42V10.52H254.826L252.593 13.952L254.947 17.45H255.53V18H253.528Z" fill="#474747"/>
</svg>
