<?xml version="1.0" standalone="no"?>
<!DOCTYPE svg PUBLIC "-//W3C//DTD SVG 20010904//EN"
 "http://www.w3.org/TR/2001/REC-SVG-20010904/DTD/svg10.dtd">
<svg version="1.0" xmlns="http://www.w3.org/2000/svg"
 width="52.000000pt" height="42.000000pt" viewBox="0 0 52.000000 42.000000"
 preserveAspectRatio="xMidYMid meet">

<g transform="translate(0.000000,42.000000) scale(0.100000,-0.100000)"
fill="#000000" stroke="none">
<path d="M164 404 c-17 -8 -36 -26 -43 -40 -14 -32 -14 -159 0 -187 16 -32 61
-77 75 -77 17 0 23 -12 33 -62 l9 -43 1 43 c1 41 2 42 36 42 40 0 81 18 108
48 27 30 33 117 13 186 -21 72 -53 106 -98 105 l-33 -1 28 -8 c16 -5 35 -14
43 -21 47 -39 78 -179 52 -229 -7 -13 -29 -35 -48 -48 -28 -19 -43 -23 -78
-18 -98 13 -142 66 -142 172 0 97 21 129 92 142 45 8 47 10 18 11 -19 0 -49
-6 -66 -15z"/>
<path d="M160 290 c0 -5 7 -10 15 -10 8 0 15 5 15 10 0 6 -7 10 -15 10 -8 0
-15 -4 -15 -10z"/>
<path d="M285 255 c-33 -7 -77 -16 -99 -19 -21 -4 -36 -9 -33 -12 5 -6 182 24
211 36 20 8 20 9 1 8 -11 0 -47 -6 -80 -13z"/>
<path d="M268 223 c6 -2 18 -2 25 0 6 3 1 5 -13 5 -14 0 -19 -2 -12 -5z"/>
</g>
</svg>
